<svg width="24" height="24" viewBox="0 0 24 24" fill="none" xmlns="http://www.w3.org/2000/svg">
<path d="M14.3765 9.75537L14.4 9.98595H14.9647L14.9882 9.75537C15.1623 7.92947 16.6165 6.48008 18.4424 6.30124L18.6729 6.2777V5.713L18.4424 5.68949C16.6165 5.51535 15.1671 4.06123 14.9882 2.23536L14.9647 2.00478H14.4L14.3765 2.23536C14.2023 4.05654 12.7482 5.51065 10.927 5.68949L10.6965 5.713V6.2777L10.927 6.30124C12.7482 6.48008 14.2023 7.92947 14.3765 9.75537ZM14.6823 3.26125C15.1153 4.54596 16.1318 5.56243 17.4165 5.99535C16.1318 6.4283 15.1153 7.44477 14.6823 8.72948C14.2494 7.44477 13.233 6.4283 11.9482 5.99535C13.233 5.56243 14.2494 4.54596 14.6823 3.26125Z" fill="black"/>
<path d="M4.25878 9.32241L4.24939 9.22359H4.00939L3.99996 9.32241C3.92468 10.0942 3.31291 10.7059 2.54115 10.7813L2.44232 10.7906V11.0306L2.54115 11.0401C3.31291 11.1154 3.92468 11.7271 3.99996 12.4989L4.00939 12.5977H4.24939L4.25878 12.4989C4.33409 11.7271 4.94585 11.1154 5.71762 11.0401L5.81645 11.0306V10.7906L5.71762 10.7813C4.94585 10.7059 4.33409 10.0942 4.25878 9.32241ZM4.13172 11.6612C4.01408 11.3083 3.73173 11.0306 3.37879 10.9083C3.73173 10.7906 4.00939 10.5083 4.13172 10.1554C4.24939 10.5083 4.53174 10.786 4.88468 10.9083C4.53174 11.026 4.25408 11.3083 4.13172 11.6612Z" fill="black"/>
<path d="M18.7483 18.8659L10.3624 10.48C10.0141 10.1318 9.44474 10.1318 9.09649 10.48C8.92708 10.6494 8.83295 10.8753 8.83295 11.1106C8.83295 11.3459 8.92708 11.5765 9.09649 11.7412L11.36 14.0047L17.4824 20.1271C17.6565 20.3012 17.8871 20.3859 18.113 20.3859C18.3389 20.3859 18.5694 20.3012 18.7435 20.1224C18.9129 19.953 19.0071 19.7271 19.0071 19.4918C19.0071 19.2565 18.9129 19.0259 18.7435 18.8612L18.7483 18.8659ZM9.50121 10.88C9.56706 10.8141 9.65177 10.7859 9.73648 10.7859C9.82118 10.7859 9.90589 10.8189 9.97178 10.88L11.8353 12.7435L11.3694 13.2094L9.5059 11.3459C9.44474 11.2847 9.40708 11.2 9.40708 11.1106C9.40708 11.0212 9.44001 10.9412 9.5059 10.8753L9.50121 10.88ZM18.353 19.7318C18.2259 19.8588 18.0141 19.8588 17.8871 19.7318L11.7647 13.6094L12.2306 13.1435L18.353 19.2659C18.4141 19.3271 18.4518 19.4118 18.4518 19.5012C18.4518 19.5906 18.4188 19.6706 18.353 19.7365V19.7318Z" fill="black"/>
<path d="M9.05885 9.06352L8.6918 8.29648C8.6259 8.1553 8.45649 8.09413 8.31531 8.15999C8.17414 8.22589 8.11297 8.3953 8.18356 8.53648L8.55062 9.30352C8.59767 9.40708 8.70122 9.46355 8.80474 9.46355C8.84709 9.46355 8.88475 9.45412 8.9271 9.43531C9.06828 9.36942 9.12944 9.2 9.05885 9.05883V9.06352Z" fill="black"/>
<path d="M10.2495 9.3271C10.2495 9.3271 10.2918 9.33653 10.3154 9.33653C10.4424 9.33653 10.56 9.24709 10.5883 9.12003L10.7859 8.29182C10.8236 8.14122 10.7295 7.98593 10.5789 7.953C10.4283 7.92003 10.273 8.00947 10.2401 8.16003L10.0424 8.98828C10.0048 9.13888 10.0989 9.29417 10.2495 9.3271Z" fill="black"/>
<path d="M12.1035 9.18589L11.393 9.6565C11.2612 9.74121 11.2282 9.91531 11.3129 10.0471C11.3694 10.1271 11.4589 10.1741 11.5483 10.1741C11.6 10.1741 11.6565 10.16 11.7035 10.1271L12.4141 9.6565C12.5459 9.5718 12.5788 9.39765 12.4941 9.2659C12.4094 9.13415 12.2306 9.10118 12.1035 9.18589Z" fill="black"/>
<path d="M6.84712 10.1695L7.62829 10.513C7.66594 10.5318 7.7036 10.5366 7.74123 10.5366C7.84947 10.5366 7.95299 10.4754 8.00007 10.3672C8.06124 10.226 8.00007 10.0566 7.85417 9.99537L7.073 9.65185C6.93183 9.58596 6.76241 9.65185 6.70125 9.79772C6.64005 9.9389 6.70125 10.1083 6.84712 10.1695Z" fill="black"/>
<path d="M7.8871 11.6895C7.84944 11.5389 7.69414 11.4495 7.54358 11.4871L6.72003 11.6942C6.56946 11.7318 6.47533 11.8871 6.51769 12.0377C6.55062 12.1648 6.66356 12.2495 6.79062 12.2495C6.81416 12.2495 6.8377 12.2495 6.8612 12.24L7.68476 12.033C7.83532 11.9953 7.92945 11.8401 7.8871 11.6895Z" fill="black"/>
<path d="M8.26824 12.8423L7.76943 13.5341C7.68003 13.6611 7.70827 13.8353 7.83059 13.9294C7.88237 13.967 7.93884 13.9812 7.99531 13.9812C8.08471 13.9812 8.16942 13.9388 8.22589 13.8635L8.72474 13.1718C8.81414 13.0447 8.7859 12.8706 8.66354 12.7765C8.53648 12.6823 8.36237 12.7153 8.26824 12.8376V12.8423Z" fill="black"/>
</svg>
