<svg width="24" height="24" viewBox="0 0 24 24" fill="none" xmlns="http://www.w3.org/2000/svg">
<path d="M19.869 9.35593H13.815V6.98757H19.869V9.35593ZM18.8162 19.8839H5.12815V9.88149H18.8162V19.8839ZM4.07704 9.35593V6.98757H10.1294V9.35593H4.07704ZM7.69529 5.05885C7.62117 4.68489 7.92269 4.40696 7.93448 4.39516C8.21074 4.14923 8.51057 4.05827 8.84915 4.11049C9.90195 4.27725 11.0053 5.74106 11.4904 6.46033H9.65096C8.08272 5.89434 7.75256 5.34015 7.69529 5.05885ZM10.6549 6.98757H13.2877V9.35593H10.6549V6.98757ZM15.0935 4.11049C15.4321 4.05659 15.7319 4.14923 16.0098 4.39516C16.0132 4.39853 16.3215 4.68153 16.249 5.05379C16.1951 5.33678 15.8667 5.89266 14.2934 6.46033H12.4522C13.0165 5.62146 14.1131 4.26714 15.0952 4.11049M20.3962 6.46033H15.5854C16.2794 6.06953 16.6752 5.63325 16.7679 5.15318C16.8959 4.48276 16.3804 4.01953 16.3602 4.001C15.9644 3.65063 15.5112 3.5125 15.0143 3.59167C13.7173 3.79718 12.4725 5.48165 11.9755 6.23292C11.4752 5.47997 10.2304 3.79718 8.93338 3.59167C8.43646 3.51419 7.98333 3.65063 7.58748 4.001C7.56559 4.01953 7.05014 4.48276 7.17816 5.15318C7.2708 5.63325 7.66665 6.07121 8.36066 6.46033H3.5498V9.88149H4.6026V20.4094H19.3417V9.88149H20.3945V6.46033H20.3962Z" fill="black"/>
<path d="M11.9722 12.0848C12.4152 13.3987 13.4562 14.4397 14.7701 14.8827C13.4562 15.3274 12.4152 16.3667 11.9722 17.6806C11.5275 16.3667 10.4881 15.3257 9.17426 14.8827C10.4881 14.438 11.5291 13.3987 11.9722 12.0848ZM11.6605 18.725L11.6841 18.9625H12.2619L12.2855 18.725C12.4657 16.8603 13.9497 15.3746 15.8161 15.1943L16.0536 15.1708V14.593L15.8161 14.5694C13.9514 14.3892 12.4657 12.9051 12.2855 11.0387L12.2619 10.8012H11.6841L11.6605 11.0387C11.4803 12.9035 9.99628 14.3892 8.12988 14.5694L7.89237 14.593V15.1708L8.12988 15.1943C9.99459 15.3746 11.4803 16.8603 11.6605 18.725Z" fill="black"/>
</svg>
