<svg width="24" height="24" viewBox="0 0 24 24" fill="none" xmlns="http://www.w3.org/2000/svg">
<path fill-rule="evenodd" clip-rule="evenodd" d="M17.39 5.48999V8.46999C17.39 8.76999 17.64 9.01999 17.95 9.01999C18.26 9.01999 18.51 8.76999 18.51 8.46999V5.48999C18.51 5.17999 18.26 4.92999 17.95 4.92999C17.64 4.92999 17.39 5.17999 17.39 5.48999Z" fill="black"/>
<path fill-rule="evenodd" clip-rule="evenodd" d="M16.47 7.54001H19.44C19.75 7.54001 20 7.29001 20 6.98001C20 6.67001 19.75 6.42001 19.44 6.42001H16.47C16.16 6.42001 15.91 6.67001 15.91 6.98001C15.91 7.29001 16.16 7.54001 16.47 7.54001Z" fill="black"/>
<path fill-rule="evenodd" clip-rule="evenodd" d="M13.49 5.29999H9.86C9.36 5.29999 8.91 5.57999 8.69 6.01999L7.99 7.42999C7.95 7.48999 7.89 7.52999 7.82 7.52999H6.05C4.92 7.52999 4 8.44999 4 9.57999V17.02C4 17.56 4.22 18.09 4.6 18.47C4.98 18.85 5.51 19.07 6.05 19.07H17.95C18.5 19.07 19.02 18.85 19.4 18.47C19.79 18.09 20 17.56 20 17.02V10.7C20 10.39 19.75 10.14 19.44 10.14C19.14 10.14 18.89 10.39 18.89 10.7V17.02C18.89 17.27 18.79 17.5 18.61 17.68C18.44 17.85 18.2 17.95 17.96 17.95H6.05C5.8 17.95 5.57 17.85 5.39 17.68C5.22 17.5 5.12 17.27 5.12 17.02V9.57999C5.12 9.06999 5.54 8.64999 6.05 8.64999H7.82C8.31 8.64999 8.77 8.36999 8.99 7.92999L9.69 6.51999C9.72 6.45999 9.79 6.41999 9.86 6.41999H13.49C13.8 6.41999 14.05 6.16999 14.05 5.85999C14.05 5.54999 13.8 5.29999 13.49 5.29999Z" fill="black"/>
<path fill-rule="evenodd" clip-rule="evenodd" d="M12 9.39999C10.05 9.39999 8.46997 10.98 8.46997 12.93C8.46997 14.88 10.05 16.47 12 16.47C13.95 16.47 15.54 14.88 15.54 12.93C15.54 10.98 13.95 9.39999 12 9.39999ZM12 10.51C13.34 10.51 14.42 11.6 14.42 12.93C14.42 14.27 13.34 15.35 12 15.35C10.67 15.35 9.57997 14.27 9.57997 12.93C9.57997 11.6 10.67 10.51 12 10.51Z" fill="black"/>
</svg>
