<svg width="24" height="24" viewBox="0 0 24 24" fill="none" xmlns="http://www.w3.org/2000/svg">
<g clip-path="url(#clip0_189_1564)">
<path fill-rule="evenodd" clip-rule="evenodd" d="M17.9439 8.14627H20.667L23.6399 12.3385V17.7331H21.8604C21.7784 18.4428 21.1753 18.9958 20.4407 18.9958C19.7063 18.9958 19.1013 18.4429 19.0192 17.7331H8.96566C8.8837 18.4428 8.28057 18.9958 7.54603 18.9958C6.81159 18.9958 6.20654 18.4429 6.12448 17.7331H4.31995V5.40002H17.9439V8.14627ZM21.8179 17.1916H23.0975V15.8381H4.86235V17.1916H6.16689C6.33155 16.5867 6.88724 16.1396 7.54603 16.1396C8.20496 16.1396 8.75879 16.5851 8.92506 17.1916H19.0597C19.2243 16.5867 19.78 16.1396 20.4388 16.1396C21.0978 16.1396 21.6516 16.5851 21.8179 17.1916ZM19.5503 17.5658C19.5503 18.0558 19.9478 18.4543 20.4388 18.4543C20.9299 18.4543 21.3292 18.0538 21.3292 17.5658C21.3292 17.078 20.9282 16.6793 20.4388 16.6793C19.9495 16.6793 19.5503 17.076 19.5503 17.5658ZM6.65563 17.5658C6.65563 18.0558 7.05313 18.4543 7.54411 18.4543C8.03517 18.4543 8.43451 18.0538 8.43451 17.5658C8.43451 17.078 8.03348 16.6793 7.54411 16.6793C7.05481 16.6793 6.65563 17.076 6.65563 17.5658ZM17.4009 5.94156H4.86235V15.2966H17.4009V5.94156ZM23.0975 15.2832H17.9439V8.71334H20.4133L23.0975 12.429V15.2832Z" fill="black"/>
<path fill-rule="evenodd" clip-rule="evenodd" d="M11.4412 7.4612L11.422 7.27151H10.9593L10.9401 7.4612C10.7961 8.95382 9.60571 10.1418 8.11003 10.2855L7.91995 10.3047V10.7664L8.11003 10.7856C9.60571 10.9293 10.7961 12.1173 10.9401 13.6099L10.9593 13.7996H11.422L11.4412 13.6099C11.5852 12.1173 12.7756 10.9293 14.2713 10.7856L14.4614 10.7664V10.3047L14.2713 10.2855C12.7756 10.1418 11.5852 8.95382 11.4412 7.4612ZM11.1916 12.7726C11.0973 12.4931 10.9691 12.2293 10.8119 11.9858C10.5993 11.6563 10.3337 11.3641 10.0273 11.1211C9.73233 10.8871 9.39952 10.6987 9.03981 10.5666C9.00976 10.5555 8.97949 10.5448 8.94907 10.5346C10.0031 10.1801 10.8364 9.34662 11.1916 8.29661C11.2019 8.32694 11.2125 8.3571 11.2236 8.38705C11.3239 8.65942 11.4566 8.91614 11.6171 9.15258C11.8982 9.56659 12.2642 9.91844 12.6899 10.1833C12.9217 10.3275 13.1711 10.446 13.4342 10.5346C13.4038 10.5448 13.3735 10.5555 13.3435 10.5665C12.3625 10.9264 11.5841 11.7048 11.2236 12.6822C11.2126 12.7121 11.2019 12.7422 11.1916 12.7726Z" fill="black"/>
<path fill-rule="evenodd" clip-rule="evenodd" d="M0.239929 13.6801H5.99993V14.1601H0.239929V13.6801Z" fill="black"/>
<path fill-rule="evenodd" clip-rule="evenodd" d="M1.68005 12.24H6.96005V12.72H1.68005V12.24Z" fill="black"/>
</g>
<defs>
<clipPath id="clip0_189_1564">
<rect width="24" height="24" fill="white"/>
</clipPath>
</defs>
</svg>
