<svg width="24" height="24" viewBox="0 0 24 24" fill="none" xmlns="http://www.w3.org/2000/svg">
<path d="M19.869 9.35587H13.815V6.98751H19.869V9.35587ZM18.8162 19.8838H5.12815V9.88143H18.8162V19.8838ZM4.07704 9.35587V6.98751H10.1294V9.35587H4.07704ZM7.69529 5.05879C7.62117 4.68483 7.92269 4.4069 7.93448 4.3951C8.21074 4.14917 8.51057 4.05821 8.84915 4.11043C9.90195 4.27719 11.0053 5.741 11.4904 6.46027H9.65096C8.08272 5.89428 7.75256 5.34009 7.69529 5.05879ZM10.6549 6.98751H13.2877V9.35587H10.6549V6.98751ZM15.0935 4.11043C15.4321 4.05652 15.7319 4.14917 16.0098 4.3951C16.0132 4.39847 16.3215 4.68146 16.249 5.05373C16.1951 5.33672 15.8667 5.8926 14.2934 6.46027H12.4522C13.0165 5.6214 14.1131 4.26708 15.0952 4.11043M20.3962 6.46027H15.5854C16.2794 6.06947 16.6752 5.63319 16.7679 5.15312C16.8959 4.4827 16.3804 4.01947 16.3602 4.00094C15.9644 3.65057 15.5112 3.51244 15.0143 3.59161C13.7173 3.79712 12.4725 5.48159 11.9755 6.23286C11.4752 5.4799 10.2304 3.79712 8.93338 3.59161C8.43646 3.51412 7.98333 3.65057 7.58748 4.00094C7.56559 4.01947 7.05014 4.4827 7.17816 5.15312C7.2708 5.63319 7.66665 6.07115 8.36066 6.46027H3.5498V9.88143H4.6026V20.4094H19.3417V9.88143H20.3945V6.46027H20.3962Z" fill="black"/>
<path d="M11.9722 12.0847C12.4152 13.3986 13.4562 14.4396 14.7701 14.8827C13.4562 15.3274 12.4152 16.3667 11.9722 17.6806C11.5275 16.3667 10.4881 15.3257 9.17426 14.8827C10.4881 14.438 11.5291 13.3986 11.9722 12.0847ZM11.6605 18.7249L11.6841 18.9624H12.2619L12.2855 18.7249C12.4657 16.8602 13.9497 15.3745 15.8161 15.1943L16.0536 15.1707V14.5929L15.8161 14.5693C13.9514 14.3891 12.4657 12.9051 12.2855 11.0387L12.2619 10.8012H11.6841L11.6605 11.0387C11.4803 12.9034 9.99628 14.3891 8.12988 14.5693L7.89237 14.5929V15.1707L8.12988 15.1943C9.99459 15.3745 11.4803 16.8602 11.6605 18.7249Z" fill="black"/>
</svg>
