<svg width="24" height="24" viewBox="0 0 24 24" fill="none" xmlns="http://www.w3.org/2000/svg">
<path d="M11.7013 15.3841C11.2126 13.9338 10.0635 12.7874 8.6159 12.2987C10.0661 11.81 11.2126 10.6609 11.7013 9.21327C12.19 10.6635 13.3391 11.81 14.7867 12.2987C13.3365 12.7874 12.19 13.9365 11.7013 15.3841ZM12.0447 8.06152L12.0183 7.8L11.3817 7.8L11.3553 8.06152C11.1571 10.1193 9.51933 11.7571 7.46151 11.9553L7.19999 11.9817V12.6183L7.46151 12.6447C9.51933 12.8429 11.1571 14.4807 11.3553 16.5385L11.3817 16.8H12.0183L12.0447 16.5385C12.2428 14.4807 13.8806 12.8429 15.9385 12.6447L16.2 12.6183V11.9817L15.9385 11.9553C13.8806 11.7571 12.2428 10.1193 12.0447 8.06152Z" fill="black"/>
<path d="M11.7013 15.3841C11.2126 13.9338 10.0635 12.7874 8.6159 12.2987C10.0661 11.81 11.2126 10.6609 11.7013 9.21327C12.19 10.6635 13.3391 11.81 14.7867 12.2987C13.3365 12.7874 12.19 13.9365 11.7013 15.3841ZM12.0447 8.06152L12.0183 7.8L11.3817 7.8L11.3553 8.06152C11.1571 10.1193 9.51933 11.7571 7.46151 11.9553L7.19999 11.9817V12.6183L7.46151 12.6447C9.51933 12.8429 11.1571 14.4807 11.3553 16.5385L11.3817 16.8H12.0183L12.0447 16.5385C12.2428 14.4807 13.8806 12.8429 15.9385 12.6447L16.2 12.6183V11.9817L15.9385 11.9553C13.8806 11.7571 12.2428 10.1193 12.0447 8.06152Z" fill="#1B1C1E"/>
<path d="M11.7013 15.3841C11.2126 13.9338 10.0635 12.7874 8.6159 12.2987C10.0661 11.81 11.2126 10.6609 11.7013 9.21327C12.19 10.6635 13.3391 11.81 14.7867 12.2987C13.3365 12.7874 12.19 13.9365 11.7013 15.3841ZM12.0447 8.06152L12.0183 7.8L11.3817 7.8L11.3553 8.06152C11.1571 10.1193 9.51933 11.7571 7.46151 11.9553L7.19999 11.9817V12.6183L7.46151 12.6447C9.51933 12.8429 11.1571 14.4807 11.3553 16.5385L11.3817 16.8H12.0183L12.0447 16.5385C12.2428 14.4807 13.8806 12.8429 15.9385 12.6447L16.2 12.6183V11.9817L15.9385 11.9553C13.8806 11.7571 12.2428 10.1193 12.0447 8.06152Z" fill="#1F1F1F"/>
<path d="M19.1639 7.77256L19.2943 8.01258L19.3076 8.01547C19.28 7.96732 19.2518 7.91933 19.2232 7.87152L19.1639 7.77256Z" fill="black"/>
<path fill-rule="evenodd" clip-rule="evenodd" d="M20.8624 8.35498L19.3076 8.01547C19.28 7.96732 19.2518 7.91933 19.2232 7.87152L19.1639 7.77256L18.649 8.09473L18.8439 8.43259L18.5417 9.84386C18.513 9.97535 18.3831 10.0587 18.2516 10.03C18.1201 10.0012 18.0368 9.87137 18.0655 9.73987L18.5334 7.59697C18.5621 7.46547 18.692 7.38214 18.8235 7.41086L20.9664 7.87878C21.0979 7.9075 21.1812 8.03737 21.1525 8.16887C21.1238 8.30037 20.9939 8.3837 20.8624 8.35498Z" fill="black"/>
<path fill-rule="evenodd" clip-rule="evenodd" d="M19.1639 7.77256L18.649 8.09473L18.7067 8.19402C20.9338 11.9185 19.7794 16.7532 16.0835 19.0655C12.3412 21.4068 7.40931 20.2711 5.06794 16.5288C2.72657 12.7864 3.86229 7.85456 7.60464 5.51319C10.515 3.69232 14.1451 3.97431 16.7166 5.95032L16.8086 6.02105L17.1666 5.52986L17.0789 5.46266C14.3128 3.34215 10.4114 3.04069 7.28249 4.99827C3.25575 7.51757 2.03373 12.8242 4.55302 16.8509C7.07232 20.8776 12.3789 22.0997 16.4057 19.5804C20.3372 17.1206 21.5951 12.0039 19.3076 8.01547L19.2943 8.01258L19.1639 7.77256Z" fill="black"/>
</svg>
