<svg width="24" height="24" viewBox="0 0 24 24" fill="none" xmlns="http://www.w3.org/2000/svg">
<path d="M10.5834 10.4078L10.1912 9.97461C8.24197 10.8351 7.01855 12.7317 7.20002 14.8273C7.44002 17.5141 9.89855 19.5044 12.6849 19.2585C15.4829 19.0127 17.5551 16.6361 17.3151 13.9375C17.1571 12.1522 16.039 10.6946 14.5054 9.98046L14.0195 10.32C15.4947 11.0166 16.5776 12.357 16.7239 13.9902C16.9288 16.3492 15.1025 18.4624 12.6556 18.679C10.2029 18.8956 8.03709 17.1512 7.82636 14.7746C7.66246 12.8546 8.83319 11.1219 10.5834 10.4078Z" fill="black"/>
<path d="M12.0937 11.4206V11.6079H12.5795L12.5912 11.4206C12.7493 9.79911 14.0371 8.5113 15.6527 8.35325H15.84L15.8517 7.87325L15.6527 7.84984C14.0371 7.69179 12.7493 6.40398 12.5912 4.78252V4.60106L12.1112 4.5835L12.0937 4.78837C11.9356 6.40984 10.6478 7.69764 9.03221 7.85569H8.84489L8.82733 8.34154L9.03221 8.35911C10.6478 8.51715 11.9356 9.80496 12.0937 11.4264V11.4206Z" fill="black"/>
</svg>
