<svg width="24" height="24" viewBox="0 0 24 24" fill="none" xmlns="http://www.w3.org/2000/svg">
<g clip-path="url(#clip0_189_1510)">
<path fill-rule="evenodd" clip-rule="evenodd" d="M17.9439 8.14615H20.667L23.6399 12.3383V17.733H21.8604C21.7784 18.4427 21.1753 18.9957 20.4407 18.9957C19.7063 18.9957 19.1013 18.4428 19.0192 17.733H8.96566C8.8837 18.4427 8.28057 18.9957 7.54603 18.9957C6.81159 18.9957 6.20654 18.4428 6.12448 17.733H4.31995V5.3999H17.9439V8.14615ZM21.8179 17.1914H23.0975V15.838H4.86235V17.1914H6.16689C6.33155 16.5866 6.88724 16.1395 7.54603 16.1395C8.20496 16.1395 8.75879 16.5849 8.92506 17.1914H19.0597C19.2243 16.5866 19.78 16.1395 20.4388 16.1395C21.0978 16.1395 21.6516 16.5849 21.8179 17.1914ZM19.5503 17.5657C19.5503 18.0557 19.9478 18.4541 20.4388 18.4541C20.9299 18.4541 21.3292 18.0537 21.3292 17.5657C21.3292 17.0779 20.9282 16.6791 20.4388 16.6791C19.9495 16.6791 19.5503 17.0759 19.5503 17.5657ZM6.65563 17.5657C6.65563 18.0557 7.05313 18.4541 7.54411 18.4541C8.03517 18.4541 8.43451 18.0537 8.43451 17.5657C8.43451 17.0779 8.03348 16.6791 7.54411 16.6791C7.05481 16.6791 6.65563 17.0759 6.65563 17.5657ZM17.4009 5.94144H4.86235V15.2964H17.4009V5.94144ZM23.0975 15.283H17.9439V8.71321H20.4133L23.0975 12.4289V15.283Z" fill="black"/>
<path fill-rule="evenodd" clip-rule="evenodd" d="M11.4412 7.46108L11.422 7.27139H10.9593L10.9401 7.46108C10.7961 8.9537 9.60571 10.1417 8.11003 10.2854L7.91995 10.3045V10.7663L8.11003 10.7855C9.60571 10.9292 10.7961 12.1171 10.9401 13.6098L10.9593 13.7995H11.422L11.4412 13.6098C11.5852 12.1171 12.7756 10.9292 14.2713 10.7855L14.4614 10.7663V10.3045L14.2713 10.2854C12.7756 10.1417 11.5852 8.9537 11.4412 7.46108Z" fill="black"/>
<path fill-rule="evenodd" clip-rule="evenodd" d="M0.239929 13.6799H5.99993V14.1599H0.239929V13.6799Z" fill="black"/>
<path fill-rule="evenodd" clip-rule="evenodd" d="M1.68005 12.24H6.96005V12.72H1.68005V12.24Z" fill="black"/>
</g>
<defs>
<clipPath id="clip0_189_1510">
<rect width="24" height="24" fill="white"/>
</clipPath>
</defs>
</svg>
