<svg width="24" height="24" viewBox="0 0 24 24" fill="none" xmlns="http://www.w3.org/2000/svg">
<g clip-path="url(#clip0_157_30)">
<path d="M24 12C24 18.63 18.63 24 12 24C5.37 24 0 18.63 0 12C0 5.37 5.37 0 12 0C18.63 0 24 5.37 24 12Z" fill="black"/>
<path d="M15.075 10.1699C15.075 11.3699 14.31 12.5549 12.765 12.8999C11.97 13.0799 11.565 13.5449 11.49 14.0849H9.89997C9.97497 12.5549 10.995 11.7749 12.39 11.4749C13.11 11.3099 13.5 10.7099 13.5 10.1249C13.5 9.34492 12.9 8.56492 11.685 8.56492C10.785 8.56492 9.80997 9.08992 9.46497 10.2749L8.15997 9.74992C8.60997 7.97992 10.155 7.16992 11.67 7.16992C13.92 7.16992 15.075 8.68492 15.075 10.1699ZM11.49 15.2399V17.5649H9.86997V15.2399H11.49Z" fill="white"/>
</g>
<defs>
<clipPath id="clip0_157_30">
<rect width="24" height="24" fill="white"/>
</clipPath>
</defs>
</svg>
