<svg width="24" height="24" viewBox="0 0 24 24" fill="none" xmlns="http://www.w3.org/2000/svg">
<path d="M20.3162 17.2047L13.6496 5.53803C13.5042 5.28153 13.2934 5.06819 13.0387 4.91975C12.7839 4.77132 12.4944 4.69312 12.1996 4.69312C11.9047 4.69312 11.6152 4.77132 11.3604 4.91975C11.1057 5.06819 10.8949 5.28153 10.7495 5.53803L4.08289 17.2047C3.93595 17.4592 3.8589 17.7479 3.85956 18.0418C3.86021 18.3356 3.93852 18.6241 4.08659 18.8779C4.23465 19.1317 4.44717 19.3418 4.70262 19.4871C4.95809 19.6323 5.24739 19.7073 5.54121 19.7047H18.8746C19.167 19.7044 19.4542 19.6272 19.7073 19.4808C19.9605 19.3343 20.1706 19.1239 20.3166 18.8706C20.4627 18.6173 20.5396 18.3301 20.5395 18.0376C20.5395 17.7452 20.4625 17.4579 20.3162 17.2047Z" fill="#EF7D60" stroke="#EF7D60" stroke-width="1.66666" stroke-linecap="round" stroke-linejoin="round"/>
<path d="M12.2077 9.70459V13.0379" stroke="white" stroke-width="1.66666" stroke-linecap="round" stroke-linejoin="round"/>
<path d="M12.2077 16.3713H12.215" stroke="white" stroke-width="1.66666" stroke-linecap="round" stroke-linejoin="round"/>
</svg>
