<svg width="400" height="400" viewBox="0 0 400 400" fill="none" xmlns="http://www.w3.org/2000/svg">
<path d="M252.724 225.899C276.003 208.731 287.751 179.751 287.751 139.839V130.741C287.751 91.2699 276.075 62.4362 253.088 45.1215C233.239 30.1546 208.793 27 191.79 27H183.982C167.125 27 142.825 30.0813 122.684 44.7548C99.0408 61.9961 87 90.903 87 130.741V139.839C87 179.384 98.8221 208.144 122.028 225.458C137.79 237.197 156.471 241.673 172.015 242.993L171.722 372.854L256.664 373V341.526L202.591 341.452L202.809 243.14C218.207 241.893 236.816 237.564 252.651 225.899H252.724ZM172.307 169.259V209.831C158.369 207.777 147.423 202.128 139.615 192.81C129.617 180.924 124.582 162.95 124.582 139.399V131.328C124.582 102.495 132.609 81.3649 147.788 70.2864C159.464 61.7758 174.13 60.0153 184.42 60.0153H191.353C206.166 60.0153 218.353 63.4637 227.474 70.2134C242.361 81.2185 250.242 102.421 250.242 131.328V139.399C250.242 168.379 242.361 189.582 227.474 200.587C220.907 205.429 212.661 208.584 202.955 209.905V169.332H172.307V169.259Z" fill="white"/>
<path d="M313.73 274.165L287.666 274.091L287.739 243.102H265.544L265.472 274.018H239.334V294.923H265.399L265.326 325.691L287.52 325.765L287.593 294.996L313.657 295.07L313.73 274.165Z" fill="white"/>
</svg>
