<svg width="24" height="24" viewBox="0 0 24 24" fill="none" xmlns="http://www.w3.org/2000/svg">
<path d="M2.83825 14.4267C2.55651 13.36 1.88868 12.5067 1.04347 12.1467C1.88868 11.7867 2.55651 10.9333 2.83825 9.86666C3.11999 10.9467 3.78781 11.7867 4.6226 12.1467C3.78781 12.5067 3.11999 13.36 2.83825 14.4267ZM3.03651 9.01333L3.01564 8.82666H2.65042L2.63999 9.01333C2.52521 10.5333 1.57564 11.7467 0.37564 11.8933L0.229553 11.92V12.3867L0.37564 12.4C1.57564 12.5467 2.52521 13.76 2.63999 15.28L2.65042 15.48H3.01564L3.03651 15.28C3.15129 13.76 4.10086 12.5467 5.29042 12.4L5.44694 12.3867V11.92L5.29042 11.8933C4.10086 11.7467 3.15129 10.5333 3.03651 9.01333Z" fill="black"/>
<path d="M22.9774 10.9333H7.53394V12.9333H22.9774V10.9333Z" fill="black"/>
<path d="M2.83825 6.42666C2.55651 5.35999 1.88868 4.50666 1.04347 4.14666C1.88868 3.78666 2.55651 2.93333 2.83825 1.86666C3.11999 2.94666 3.78781 3.78666 4.6226 4.14666C3.78781 4.50666 3.11999 5.35999 2.83825 6.42666ZM3.03651 1.01333L3.01564 0.82666H2.65042L2.63999 1.01333C2.52521 2.53333 1.57564 3.74666 0.37564 3.89333L0.229553 3.91999V4.38666L0.37564 4.39999C1.57564 4.54666 2.52521 5.75999 2.63999 7.27999L2.65042 7.47999H3.01564L3.03651 7.27999C3.15129 5.75999 4.10086 4.54666 5.29042 4.39999L5.44694 4.38666V3.91999L5.29042 3.89333C4.10086 3.74666 3.15129 2.53333 3.03651 1.01333Z" fill="black"/>
<path d="M22.9774 2.93332H7.53394V4.93332H22.9774V2.93332Z" fill="black"/>
<path d="M2.83825 22.4267C2.55651 21.36 1.88868 20.5067 1.04347 20.1467C1.88868 19.7867 2.55651 18.9333 2.83825 17.8667C3.11999 18.9467 3.78781 19.7867 4.6226 20.1467C3.78781 20.5067 3.11999 21.36 2.83825 22.4267ZM3.03651 17.0133L3.01564 16.8267H2.65042L2.63999 17.0133C2.52521 18.5333 1.57564 19.7467 0.37564 19.8933L0.229553 19.92V20.3867L0.37564 20.4C1.57564 20.5467 2.52521 21.76 2.63999 23.28L2.65042 23.48H3.01564L3.03651 23.28C3.15129 21.76 4.10086 20.5467 5.29042 20.4L5.44694 20.3867V19.92L5.29042 19.8933C4.10086 19.7467 3.15129 18.5333 3.03651 17.0133Z" fill="black"/>
<path d="M20.0557 18.9333H7.53394V20.9333H20.0557V18.9333Z" fill="black"/>
</svg>
