<svg width="24" height="24" viewBox="0 0 24 24" fill="none" xmlns="http://www.w3.org/2000/svg">
<path fill-rule="evenodd" clip-rule="evenodd" d="M18.16 4.63V8C18.16 8.35 18.44 8.63 18.79 8.63C19.14 8.63 19.42 8.35 19.42 8V4.63C19.42 4.28 19.14 4 18.79 4C18.44 4 18.16 4.28 18.16 4.63Z" fill="black"/>
<path fill-rule="evenodd" clip-rule="evenodd" d="M17.11 6.94999H20.47C20.82 6.94999 21.11 6.65999 21.11 6.31999C21.11 5.96999 20.82 5.67999 20.47 5.67999H17.11C16.76 5.67999 16.47 5.96999 16.47 6.31999C16.47 6.65999 16.76 6.94999 17.11 6.94999Z" fill="black"/>
<path fill-rule="evenodd" clip-rule="evenodd" d="M13.74 4.42001H9.63C9.07 4.42001 8.56 4.74001 8.31 5.23001L7.51 6.83001C7.47 6.90001 7.4 6.95001 7.32 6.95001H5.32C4.04 6.95001 3 7.98001 3 9.26001V17.68C3 18.3 3.24 18.89 3.68 19.32C4.11 19.76 4.7 20 5.32 20H18.79C19.41 20 19.99 19.76 20.43 19.32C20.86 18.89 21.11 18.3 21.11 17.68V10.53C21.11 10.18 20.82 9.89001 20.48 9.89001C20.13 9.89001 19.84 10.18 19.84 10.53V17.68C19.84 17.96 19.73 18.23 19.54 18.43C19.34 18.63 19.07 18.74 18.79 18.74H5.32C5.04 18.74 4.77 18.62 4.57 18.43C4.38 18.23 4.26 17.96 4.26 17.68V9.26001C4.26 8.68001 4.74 8.21001 5.32 8.21001H7.32C7.88 8.21001 8.39 7.89001 8.64 7.40001L9.44 5.80001C9.47 5.73001 9.55 5.68001 9.63 5.68001H13.74C14.09 5.68001 14.37 5.40001 14.37 5.05001C14.37 4.70001 14.09 4.42001 13.74 4.42001Z" fill="black"/>
<path fill-rule="evenodd" clip-rule="evenodd" d="M12.05 9.04999C9.83999 9.04999 8.04999 10.85 8.04999 13.05C8.04999 15.26 9.83999 17.05 12.05 17.05C14.26 17.05 16.05 15.26 16.05 13.05C16.05 10.84 14.26 9.04999 12.05 9.04999ZM12.05 10.32C13.56 10.32 14.79 11.54 14.79 13.05C14.79 14.56 13.56 15.79 12.05 15.79C10.54 15.79 9.31999 14.56 9.31999 13.05C9.31999 11.54 10.54 10.32 12.05 10.32Z" fill="black"/>
</svg>
