<svg width="16" height="16" viewBox="0 0 16 16" fill="none" xmlns="http://www.w3.org/2000/svg">
<path d="M8.39323 2.68008C8.89581 2.39 9.4876 2.28138 10.0602 2.37396L10.0752 2.37656L10.0907 2.38L14.0215 3.32886L14.0295 3.33101C14.4528 3.44212 14.8071 3.7131 15.0254 4.09114C15.2433 4.46853 15.3016 4.91103 15.1885 5.32871L15.1863 5.33672L14.0399 9.22025L14.036 9.23492L14.0299 9.24973C13.8233 9.7919 13.4341 10.25 12.9313 10.5403L5.92023 14.5881C5.22707 14.9883 4.33809 14.7501 3.9379 14.057L0.850983 8.71027C0.450786 8.01711 0.688988 7.12813 1.38215 6.72794L8.39323 2.68008Z" stroke="#2B8B68" stroke-width="0.8"/>
<path d="M12.5635 4.30181C12.0628 4.59091 11.8905 5.23365 12.1796 5.73438C12.4687 6.23512 13.1115 6.40734 13.6122 6.11824C14.1129 5.82914 14.2852 5.18641 13.9961 4.68567C13.707 4.18494 13.0642 4.01272 12.5635 4.30181ZM13.3497 5.66358C13.0993 5.80813 12.7785 5.7217 12.6343 5.47189C12.4901 5.22207 12.5762 4.90071 12.826 4.75648C13.0758 4.61225 13.3968 4.6978 13.5414 4.94817C13.6859 5.19854 13.5995 5.51935 13.3497 5.66358Z" fill="#2B8B68"/>
</svg>
