<svg width="24" height="24" viewBox="0 0 24 24" fill="none" xmlns="http://www.w3.org/2000/svg">
<path fill-rule="evenodd" clip-rule="evenodd" d="M3.71061 11.6667C3.80759 11.8382 3.95023 12.0801 4.137 12.3693C4.52605 12.9717 5.1025 13.7733 5.85179 14.5725C7.36178 16.1832 9.49969 17.7083 12.1667 17.7083C14.8336 17.7083 16.9715 16.1832 18.4815 14.5725C19.2308 13.7733 19.8073 12.9717 20.1963 12.3693C20.3831 12.0801 20.5257 11.8382 20.6227 11.6667C20.5257 11.4951 20.3831 11.2533 20.1963 10.9641C19.8073 10.3617 19.2308 9.56004 18.4815 8.7608C16.9715 7.15014 14.8336 5.625 12.1667 5.625C9.49969 5.625 7.36178 7.15014 5.85179 8.7608C5.1025 9.56004 4.52605 10.3617 4.137 10.9641C3.95023 11.2533 3.80759 11.4951 3.71061 11.6667ZM21.3333 11.6667C21.8923 11.3872 21.8922 11.3869 21.8921 11.3867L21.891 11.3844L21.8884 11.3792L21.8794 11.3618C21.8719 11.347 21.861 11.3261 21.8469 11.2995C21.8187 11.2462 21.7775 11.1699 21.7234 11.0738C21.6154 10.8818 21.4559 10.6103 21.2464 10.2859C20.8281 9.63832 20.2067 8.77329 19.3935 7.90587C17.7784 6.18319 15.333 4.375 12.1667 4.375C9.00031 4.375 6.55488 6.18319 4.93987 7.90587C4.12667 8.77329 3.5052 9.63832 3.08695 10.2859C2.87745 10.6103 2.71791 10.8818 2.60989 11.0738C2.55585 11.1699 2.51464 11.2462 2.48644 11.2995C2.47233 11.3261 2.46148 11.347 2.4539 11.3618L2.44498 11.3792L2.44236 11.3844L2.44152 11.3861C2.4414 11.3863 2.44098 11.3872 3 11.6667L2.44098 11.3872C2.35301 11.5631 2.35301 11.7702 2.44098 11.9462L3 11.6667C2.44098 11.9462 2.44086 11.9459 2.44098 11.9462L2.44152 11.9472L2.44236 11.9489L2.44498 11.9541L2.4539 11.9716C2.46148 11.9863 2.47233 12.0072 2.48644 12.0339C2.51464 12.0872 2.55585 12.1635 2.60989 12.2595C2.71791 12.4516 2.87745 12.723 3.08695 13.0474C3.5052 13.695 4.12667 14.56 4.93987 15.4275C6.55488 17.1501 9.00031 18.9583 12.1667 18.9583C15.333 18.9583 17.7784 17.1501 19.3935 15.4275C20.2067 14.56 20.8281 13.695 21.2464 13.0474C21.4559 12.723 21.6154 12.4516 21.7234 12.2595C21.7775 12.1635 21.8187 12.0872 21.8469 12.0339C21.861 12.0072 21.8719 11.9863 21.8794 11.9716L21.8884 11.9541L21.891 11.9489L21.8918 11.9472C21.8919 11.947 21.8923 11.9462 21.3333 11.6667ZM21.3333 11.6667L21.8923 11.9462C21.9803 11.7702 21.9801 11.5627 21.8921 11.3867L21.3333 11.6667Z" fill="black"/>
<path fill-rule="evenodd" clip-rule="evenodd" d="M12.167 9.79163C11.1315 9.79163 10.292 10.6311 10.292 11.6666C10.292 12.7022 11.1315 13.5416 12.167 13.5416C13.2025 13.5416 14.042 12.7022 14.042 11.6666C14.042 10.6311 13.2025 9.79163 12.167 9.79163ZM9.04199 11.6666C9.04199 9.94074 10.4411 8.54163 12.167 8.54163C13.8929 8.54163 15.292 9.94074 15.292 11.6666C15.292 13.3925 13.8929 14.7916 12.167 14.7916C10.4411 14.7916 9.04199 13.3925 9.04199 11.6666Z" fill="black"/>
<path fill-rule="evenodd" clip-rule="evenodd" d="M20.8839 3.88388L4.88388 19.8839L4 19L20 3L20.8839 3.88388Z" fill="black"/>
</svg>
