<svg width="24" height="24" viewBox="0 0 24 24" fill="none" xmlns="http://www.w3.org/2000/svg">
<path d="M13.1356 6.18906H5.05084V1.94362H13.1343V6.18906H13.1356ZM6.29292 4.94697H11.8922V3.1857H6.29292V4.94697Z" fill="black"/>
<path d="M9.17702 9.6967H5.03467C4.82849 9.6967 4.66205 9.53026 4.66205 9.32408C4.66205 9.11789 4.82849 8.95145 5.03467 8.95145H9.17578C9.38196 8.95145 9.5484 9.11789 9.5484 9.32408C9.5484 9.53026 9.38196 9.6967 9.17578 9.6967H9.17702Z" fill="black"/>
<path d="M7.28528 11.8939H5.0073C4.80111 11.8939 4.63467 11.7275 4.63467 11.5213C4.63467 11.3151 4.80111 11.1487 5.0073 11.1487H7.28528C7.49146 11.1487 7.6579 11.3151 7.6579 11.5213C7.6579 11.7275 7.49146 11.8939 7.28528 11.8939Z" fill="black"/>
<path d="M7.07916 14.0899H5.0496C4.84341 14.0899 4.67697 13.9235 4.67697 13.7173C4.67697 13.5111 4.84341 13.3447 5.0496 13.3447H7.07916C7.28534 13.3447 7.45178 13.5111 7.45178 13.7173C7.45178 13.9235 7.28534 14.0899 7.07916 14.0899Z" fill="black"/>
<path d="M8.16841 16.2872H5.02097C4.81478 16.2872 4.64835 16.1208 4.64835 15.9146C4.64835 15.7084 4.81478 15.5419 5.02097 15.5419H8.16841C8.37459 15.5419 8.54103 15.7084 8.54103 15.9146C8.54103 16.1208 8.37459 16.2872 8.16841 16.2872Z" fill="black"/>
<path d="M10.7631 18.4087H5.00605C4.79986 18.4087 4.63342 18.2422 4.63342 18.036C4.63342 17.8298 4.79986 17.6634 5.00605 17.6634H10.7619C10.968 17.6634 11.1345 17.8298 11.1345 18.036C11.1345 18.2422 10.968 18.4087 10.7619 18.4087H10.7631Z" fill="black"/>
<path d="M12.2712 18.8496C10.962 18.8496 9.70253 18.4 8.67781 17.5566C7.50777 16.594 6.78364 15.2339 6.63707 13.726C6.49051 12.2181 6.94014 10.7438 7.90276 9.57373C8.86537 8.40369 10.2254 7.67955 11.7333 7.53299C13.24 7.38642 14.7156 7.83605 15.8856 8.79867C17.0557 9.76128 17.7798 11.1214 17.9264 12.6292C18.0729 14.1371 17.6233 15.6115 16.6607 16.7815C15.6981 17.9516 14.338 18.6769 12.8301 18.8235C12.6438 18.8421 12.4562 18.8508 12.2712 18.8508V18.8496ZM12.2898 8.74898C12.1445 8.74898 11.9991 8.75644 11.8526 8.7701C10.6751 8.88437 9.6131 9.45076 8.8604 10.3637C8.10894 11.2779 7.75743 12.4293 7.8717 13.6068C7.98597 14.7843 8.55236 15.8462 9.46529 16.5989C10.3795 17.3504 11.5309 17.7019 12.7084 17.5876C13.8859 17.4734 14.9478 16.907 15.7005 15.9928C16.452 15.0799 16.8035 13.9272 16.6892 12.7497C16.575 11.5722 16.0086 10.5103 15.0957 9.75755C14.2958 9.09925 13.312 8.74774 12.2898 8.74774V8.74898Z" fill="black"/>
<path d="M14.934 19.4657C14.934 20.1476 14.38 20.7015 13.6981 20.7015H4.43096C3.74905 20.7015 3.19509 20.1476 3.19509 19.4657V6.08348C3.19509 5.40157 3.74905 4.8476 4.43096 4.8476H5.05076V3.60552H4.43096C3.06467 3.60552 1.953 4.71719 1.953 6.08348V19.4657C1.953 20.832 3.06467 21.9436 4.43096 21.9436H13.6969C15.0632 21.9436 16.1748 20.832 16.1748 19.4657V17.2995C15.7997 17.6547 15.3836 17.9553 14.9328 18.1938V19.4657H14.934Z" fill="black"/>
<path d="M16.1761 9.05702V6.08348C16.1761 4.71719 15.0645 3.60552 13.6982 3.60552H13.1355V4.8476H13.6982C14.3801 4.8476 14.934 5.40157 14.934 6.08348V8.16396C15.2682 8.34158 15.5861 8.55274 15.8855 8.79867C15.9861 8.88189 16.0817 8.96883 16.1761 9.05702Z" fill="black"/>
<path d="M21.5705 17.0411L17.8368 14.3334C17.7486 14.7594 17.6108 15.1743 17.4269 15.5705L20.7743 17.9975L19.7807 19.3675L16.4904 16.9815C16.2022 17.3007 15.8818 17.5827 15.5377 17.8249L19.1286 20.4283C19.331 20.5761 19.567 20.6469 19.8005 20.6469C20.1558 20.6469 20.5073 20.4829 20.7309 20.1737L21.8289 18.6596C22.204 18.1429 22.0872 17.4175 21.5705 17.0424V17.0411Z" fill="black"/>
<path d="M13.1356 6.18906H5.05084V1.94362H13.1343V6.18906H13.1356ZM6.29292 4.94697H11.8922V3.1857H6.29292V4.94697Z" fill="black"/>
<path d="M11.4303 15.6711C11.2825 15.6711 11.1347 15.6127 11.0241 15.496L9.22434 13.5968C9.01194 13.3733 9.02188 13.0193 9.24545 12.8069C9.46903 12.5945 9.82302 12.6044 10.0354 12.828L11.4675 14.3396L14.5678 11.653C14.8013 11.4505 15.154 11.4754 15.3565 11.7089C15.559 11.9424 15.5329 12.2951 15.3006 12.4976L11.7967 15.5357C11.6911 15.6276 11.5607 15.6723 11.4303 15.6723V15.6711Z" fill="black"/>
</svg>
