<svg width="24" height="24" viewBox="0 0 24 24" fill="none" xmlns="http://www.w3.org/2000/svg">
<path fill-rule="evenodd" clip-rule="evenodd" d="M12.2 5C8.23 5 5 8.23 5 12.2C5 16.17 8.23 19.4 12.2 19.4C16.17 19.4 19.4 16.16 19.4 12.2C19.4 8.23 16.17 5 12.2 5ZM12.2 6.2C15.52 6.2 18.2 8.88 18.2 12.2C18.2 15.52 15.52 18.2 12.2 18.2C8.88 18.2 6.2 15.52 6.2 12.2C6.2 8.88 8.88 6.2 12.2 6.2ZM12.2 8.7C11.87 8.7 11.6 8.97 11.6 9.3V12.95C11.6 13.28 11.87 13.55 12.2 13.55C12.53 13.55 12.8 13.28 12.8 12.95V9.3C12.8 8.97 12.53 8.7 12.2 8.7ZM12.2 14.2C11.76 14.21 11.39 14.57 11.39 15.02C11.39 15.47 11.76 15.83 12.2 15.82C12.65 15.82 13.01 15.46 13.01 15.02C13.01 14.57 12.65 14.21 12.2 14.2Z" fill="black"/>
</svg>
