<svg width="46" height="20" viewBox="0 0 46 20" fill="none" xmlns="http://www.w3.org/2000/svg">
<path d="M8.58788 2.48581C9.12286 1.81666 9.4859 0.91819 9.39015 6.10352e-05C8.60701 0.0390022 7.65134 0.516726 7.09805 1.1864C6.60125 1.75987 6.16155 2.69596 6.27618 3.5756C7.1553 3.65186 8.0336 3.13618 8.58788 2.48581Z" fill="black"/>
<path d="M9.38031 3.74734C8.10362 3.67129 7.01813 4.47192 6.40844 4.47192C5.79842 4.47192 4.8648 3.78566 3.855 3.80416C2.5407 3.82347 1.32117 4.56658 0.654216 5.74849C-0.717598 8.1129 0.292194 11.6201 1.62621 13.5458C2.27404 14.4985 3.05478 15.5475 4.08353 15.5098C5.05553 15.4717 5.43651 14.8804 6.61801 14.8804C7.79865 14.8804 8.14183 15.5098 9.17075 15.4907C10.2378 15.4717 10.9048 14.5376 11.5527 13.5839C12.2958 12.4979 12.6001 11.4493 12.6192 11.3917C12.6001 11.3727 10.5617 10.5907 10.5428 8.24594C10.5236 6.28264 12.1431 5.34879 12.2194 5.29088C11.3048 3.93819 9.87574 3.78566 9.38031 3.74734Z" fill="black"/>
<path d="M20.4974 1.0904C23.2722 1.0904 25.2045 3.00313 25.2045 5.78793C25.2045 8.58267 23.2325 10.5053 20.4278 10.5053H17.3555V15.3912H15.1357V1.09039H20.4974V1.0904ZM17.3555 8.64212H19.9025C21.8351 8.64212 22.935 7.60165 22.935 5.79787C22.935 3.99429 21.8351 2.96356 19.9124 2.96356H17.3555V8.64212V8.64212Z" fill="black"/>
<path d="M25.7842 12.428C25.7842 10.6043 27.1816 9.48452 29.6594 9.34574L32.5134 9.17733V8.37465C32.5134 7.21508 31.7304 6.52136 30.4225 6.52136C29.1834 6.52136 28.4103 7.11587 28.2222 8.04758H26.2005C26.3194 6.16447 27.9248 4.77704 30.5016 4.77704C33.0287 4.77704 34.644 6.11496 34.644 8.20605V15.3911H32.5925V13.6766H32.5432C31.9387 14.8362 30.6205 15.5695 29.2529 15.5695C27.2114 15.5695 25.7842 14.301 25.7842 12.428ZM32.5134 11.4865V10.664L29.9465 10.8224C28.668 10.9117 27.9447 11.4766 27.9447 12.3685C27.9447 13.2802 28.6978 13.8749 29.8475 13.8749C31.3438 13.8749 32.5134 12.8441 32.5134 11.4865Z" fill="black"/>
<path d="M36.5805 19.2265V17.4922C36.7388 17.5317 37.0955 17.5317 37.2741 17.5317C38.265 17.5317 38.8003 17.1156 39.1272 16.0453C39.1272 16.0254 39.3156 15.411 39.3156 15.4011L35.5498 4.96533H37.8686L40.505 13.4488H40.5444L43.1809 4.96533H45.4404L41.5354 15.9361C40.6438 18.4634 39.6131 19.2761 37.4526 19.2761C37.2741 19.2761 36.7388 19.2562 36.5805 19.2265Z" fill="black"/>
</svg>
