<svg width="112" height="21" viewBox="0 0 112 21" fill="none" xmlns="http://www.w3.org/2000/svg">
<g clip-path="url(#clip0_353_4408)">
<path d="M16.1191 6.32462L14.3301 14.6898H12.1663L13.9553 6.32462H16.1191ZM25.2246 11.7288L26.3647 8.58987L27.0183 11.7288H25.2246ZM27.634 14.6898H29.634L27.886 6.32462H26.0403C25.8429 6.32299 25.6496 6.38063 25.4853 6.49009C25.3211 6.59955 25.1935 6.75578 25.1191 6.93855L21.8734 14.6835H24.1458L24.5947 13.4415H27.3695L27.634 14.6898ZM21.9868 11.9602C21.9962 9.75634 18.9364 9.63356 18.9553 8.65441C18.9553 8.35532 19.2482 8.03733 19.8734 7.95548C20.6053 7.88467 21.3428 8.0136 22.0072 8.32856L22.3899 6.54816C21.7433 6.30542 21.0586 6.18013 20.3679 6.17822C18.2293 6.17822 16.7238 7.31478 16.7128 8.94091C16.6986 10.1452 17.7868 10.8158 18.6025 11.2172C19.445 11.6265 19.7285 11.8894 19.7238 12.2546C19.7238 12.815 19.0513 13.0637 18.4309 13.0731C17.6573 13.0899 16.8923 12.9084 16.2088 12.5458L15.8151 14.3766C16.3206 14.6095 17.2529 14.811 18.2198 14.8205C20.5002 14.8252 21.9805 13.6981 21.9868 11.9602ZM13.0277 6.32462L9.52221 14.6898H7.23559L5.50331 8.01844C5.3978 7.60916 5.30804 7.45803 4.98835 7.28487C4.46867 7.00309 3.6104 6.73863 2.85449 6.57334L2.91433 6.32462H6.59465C6.83515 6.32604 7.06725 6.41324 7.24914 6.57053C7.43103 6.72782 7.55076 6.94485 7.58678 7.18255L8.49701 12.02L10.7537 6.32462H13.0277Z" fill="#1A1F71"/>
</g>
<rect x="0.25" y="0.25" width="31.9961" height="20.5" rx="1.91667" stroke="#EBEBEB" stroke-width="0.5"/>
<g clip-path="url(#clip1_353_4408)">
<path d="M70.1835 0.5H41.3048C40.582 0.5 39.9961 1.08568 39.9961 1.80815V19.1919C39.9961 19.9143 40.582 20.5 41.3048 20.5H70.1835C70.9062 20.5 71.4922 19.9143 71.4922 19.1919V1.80815C71.4922 1.08568 70.9062 0.5 70.1835 0.5Z" fill="#016FD0"/>
<path d="M46.0244 10.8332H47.6638L46.8449 8.89697L46.0244 10.8332Z" fill="white"/>
<path d="M58.9521 9.07812V9.96596H61.5742V10.9514H58.9521V11.918H61.8923L63.2592 10.4933L61.9506 9.07812H58.9521Z" fill="white"/>
<path d="M69.2719 7.11182H65.0357L64.0451 8.14133L63.127 7.11182H54.0247L53.2373 8.85601L52.4373 7.11182H48.7947V7.89891L48.39 7.11182H45.2703L42.2168 13.8808H45.8719L46.3255 12.8041H47.3617L47.8152 13.8808H51.8373V13.0512L52.1963 13.8808H54.2782L54.642 13.0339V13.8808H63.0042L64.0215 12.8308L64.9743 13.8808H69.2719L66.2089 10.5136L69.2719 7.11182ZM56.6892 12.9221H55.5081L55.494 9.1252L53.7711 12.9221H52.7129L50.9806 9.1252V12.9221H48.5491L48.0892 11.8344H45.5995L45.1396 12.9206H43.8373L45.9806 8.07679H47.7601L49.7853 12.6577V8.07679H51.7365L53.3003 11.3621L54.7428 8.07522H56.6892V12.9221ZM67.0325 12.9221H65.4955L64.0262 11.318L62.4971 12.9206H57.7727V8.07679H62.5774L64.0467 9.66514L65.5633 8.07679H67.0341L64.7947 10.5136L67.0325 12.9221Z" fill="white"/>
</g>
<rect x="39.7461" y="0.25" width="31.9961" height="20.5" rx="1.91667" stroke="#EBEBEB" stroke-width="0.5"/>
<g clip-path="url(#clip2_353_4408)">
<rect x="79.4922" y="0.5" width="31.4961" height="20" rx="1.66667" fill="white"/>
<path d="M98.2232 15.7004H92.2578V4.9834H98.2232V15.7004Z" fill="#FF5F00"/>
<path d="M92.6385 10.342C92.638 9.31115 92.8719 8.29362 93.3226 7.36639C93.7733 6.43916 94.429 5.62649 95.2401 4.98981C94.2343 4.1999 93.0265 3.70875 91.7548 3.5725C90.483 3.43625 89.1985 3.66039 88.0481 4.2193C86.8977 4.77821 85.9279 5.64936 85.2493 6.73318C84.5708 7.817 84.2109 9.06977 84.2109 10.3483C84.2109 11.6269 84.5708 12.8797 85.2493 13.9635C85.9279 15.0473 86.8977 15.9185 88.0481 16.4774C89.1985 17.0363 90.483 17.2604 91.7548 17.1242C93.0265 16.9879 94.2343 16.4968 95.2401 15.7069C94.4287 15.0703 93.7726 14.2577 93.3213 13.3305C92.8701 12.4033 92.6355 11.3857 92.6354 10.3546" fill="#EB001B"/>
<path d="M106.264 10.3418C106.261 11.6186 105.9 12.869 105.221 13.9506C104.542 15.0321 103.573 15.9014 102.424 16.4592C101.275 17.017 99.9926 17.2411 98.7225 17.1058C97.4524 16.9705 96.2458 16.4814 95.2402 15.694C96.6619 14.5768 97.5814 12.9408 97.7964 11.1459C98.0114 9.35096 97.5043 7.54419 96.3867 6.12301C96.052 5.69635 95.6671 5.31157 95.2402 4.97701C96.2456 4.18673 97.453 3.69507 98.7246 3.55821C99.9962 3.42135 101.281 3.6448 102.431 4.20303C103.582 4.76126 104.552 5.63176 105.231 6.71507C105.91 7.79837 106.271 9.05079 106.272 10.3292" fill="#F79E1B"/>
</g>
<rect x="79.2422" y="0.25" width="31.9961" height="20.5" rx="1.91667" stroke="#EBEBEB" stroke-width="0.5"/>
<defs>
<clipPath id="clip0_353_4408">
<rect x="0.5" y="0.5" width="31.4961" height="20" rx="1.66667" fill="white"/>
</clipPath>
<clipPath id="clip1_353_4408">
<rect x="39.9961" y="0.5" width="31.4961" height="20" rx="1.66667" fill="white"/>
</clipPath>
<clipPath id="clip2_353_4408">
<rect x="79.4922" y="0.5" width="31.4961" height="20" rx="1.66667" fill="white"/>
</clipPath>
</defs>
</svg>
