<svg width="60" height="16" viewBox="0 0 60 16" fill="none" xmlns="http://www.w3.org/2000/svg">
<rect width="60" height="16" rx="3.55554" fill="white"/>
<path d="M22.1839 4.03564H18.9319C18.8245 4.0358 18.7207 4.07402 18.6389 4.14351C18.557 4.213 18.5025 4.30924 18.485 4.41513L17.1647 12.7536C17.159 12.7885 17.1601 12.8241 17.1682 12.8585C17.1762 12.8929 17.1909 12.9254 17.2115 12.9541C17.2321 12.9828 17.2582 13.0071 17.2882 13.0258C17.3182 13.0444 17.3516 13.0569 17.3865 13.0626H18.9856C19.0937 13.063 19.1982 13.0246 19.2803 12.9543C19.3623 12.884 19.4163 12.7866 19.4324 12.6798L19.7684 10.4331C19.7845 10.3263 19.8385 10.2289 19.9206 10.1586C20.0026 10.0883 20.1072 10.0499 20.2152 10.0503H21.2466C23.3867 10.0503 24.6062 9.01256 24.9421 6.96068C25.09 6.06067 24.9421 5.35543 24.5289 4.86177C24.1157 4.36811 23.2724 4.03564 22.1839 4.03564V4.03564ZM22.5602 7.07821C22.3821 8.24688 21.4919 8.24688 20.6284 8.24688H20.1379L20.4739 6.06738C20.4849 6.0039 20.5178 5.94629 20.5669 5.90457C20.616 5.86284 20.6782 5.83965 20.7427 5.83902H20.9678C21.5557 5.83902 22.11 5.83902 22.3956 6.17485C22.4883 6.30381 22.5512 6.45177 22.5796 6.60801C22.6081 6.76424 22.6015 6.92485 22.5602 7.07821V7.07821ZM31.9065 7.04127H30.3477C30.2834 7.04135 30.2213 7.06442 30.1727 7.10632C30.124 7.14821 30.0919 7.20615 30.0823 7.26963L30.0117 7.70621L29.9042 7.54837C29.5683 7.05806 28.8157 6.89687 28.0632 6.89687C27.2048 6.91643 26.382 7.24299 25.744 7.81728C25.106 8.39157 24.6951 9.1755 24.586 10.0268C24.5047 10.4436 24.5145 10.8732 24.6148 11.2859C24.7152 11.6986 24.9036 12.0847 25.1672 12.4178C25.415 12.6863 25.7199 12.8957 26.0595 13.0306C26.3991 13.1654 26.7647 13.2223 27.1292 13.1969C27.5303 13.2003 27.9279 13.1229 28.2985 12.9694C28.669 12.8159 29.0049 12.5895 29.2861 12.3036L29.2155 12.7369C29.2097 12.7721 29.211 12.8082 29.2192 12.843C29.2274 12.8778 29.2424 12.9106 29.2633 12.9397C29.2842 12.9687 29.3106 12.9933 29.341 13.0121C29.3715 13.0308 29.4053 13.0435 29.4406 13.0492H30.8852C30.9932 13.0496 31.0978 13.0111 31.1799 12.9408C31.2619 12.8706 31.3159 12.7731 31.332 12.6663L32.1719 7.3368C32.1782 7.30239 32.1776 7.26708 32.1702 7.23289C32.1628 7.19871 32.1487 7.16633 32.1287 7.13761C32.1087 7.1089 32.0833 7.08441 32.0538 7.06558C32.0243 7.04674 31.9914 7.03391 31.9569 7.02784L31.9065 7.04127ZM29.7362 10.0637C29.6763 10.4837 29.4643 10.8671 29.1405 11.1413C28.8167 11.4155 28.4035 11.5614 27.9792 11.5514C27.7841 11.5727 27.5867 11.5459 27.4043 11.4735C27.222 11.401 27.0601 11.285 26.9329 11.1357C26.8056 10.9863 26.7169 10.808 26.6744 10.6165C26.6319 10.425 26.637 10.226 26.6891 10.0368C26.7486 9.61825 26.9582 9.23555 27.279 8.96C27.5998 8.68446 28.0098 8.53485 28.4327 8.53905C28.6262 8.52889 28.8196 8.56154 28.9991 8.63469C29.1785 8.70783 29.3396 8.81965 29.4708 8.96219C29.5936 9.11617 29.6811 9.29526 29.7269 9.48677C29.7728 9.67829 29.776 9.87753 29.7362 10.0704V10.0637ZM40.2013 7.04127H38.6357C38.562 7.041 38.4894 7.05895 38.4244 7.09352C38.3593 7.12809 38.3038 7.17821 38.2628 7.23941L36.1026 10.4197L35.1888 7.36367C35.1626 7.26835 35.1063 7.18409 35.0281 7.12354C34.95 7.06299 34.8543 7.02941 34.7554 7.02784H33.2167C33.1446 7.02784 33.0754 7.0565 33.0243 7.10751C32.9733 7.15853 32.9446 7.22771 32.9446 7.29986C32.9413 7.32887 32.9413 7.35816 32.9446 7.38717L34.6714 12.4447L33.0488 14.7317C33.0084 14.7915 32.9932 14.8648 33.0064 14.9358C33.0196 15.0068 33.0601 15.0697 33.1193 15.1111C33.1638 15.1416 33.2165 15.158 33.2705 15.1582H34.8327C34.9059 15.1579 34.978 15.1401 35.0429 15.1062C35.1078 15.0723 35.1636 15.0233 35.2056 14.9634L40.4096 7.45434C40.4302 7.42624 40.4451 7.39431 40.4532 7.36041C40.4614 7.32652 40.4626 7.29133 40.457 7.25693C40.4514 7.22252 40.4389 7.18959 40.4204 7.16005C40.4019 7.13052 40.3776 7.10498 40.3491 7.08493C40.3046 7.05153 40.2502 7.03382 40.1946 7.03456L40.2013 7.04127Z" fill="#253B80"/>
<path d="M45.3858 4.03564H42.1337C42.0269 4.03659 41.9239 4.07517 41.8428 4.14459C41.7617 4.214 41.7076 4.30981 41.6902 4.41513L40.3766 12.7536C40.3709 12.7885 40.372 12.8241 40.3801 12.8585C40.3881 12.8929 40.4028 12.9254 40.4234 12.9541C40.444 12.9828 40.4701 13.0071 40.5001 13.0258C40.5301 13.0444 40.5635 13.0569 40.5984 13.0626H42.3118C42.3874 13.0626 42.4605 13.0355 42.5179 12.9862C42.5752 12.9369 42.6129 12.8687 42.6242 12.7939L42.9971 10.4432C43.0132 10.3364 43.0672 10.239 43.1493 10.1687C43.2313 10.0984 43.3359 10.0599 43.4439 10.0603H44.472C46.6154 10.0603 47.8517 9.02264 48.1675 6.97075C48.3153 6.07074 48.1675 5.36551 47.7543 4.87185C47.341 4.37818 46.4709 4.03564 45.3858 4.03564V4.03564ZM45.762 7.07821C45.584 8.24688 44.6937 8.24688 43.8303 8.24688H43.3364L43.6724 6.06738C43.682 6.00389 43.7141 5.94596 43.7628 5.90406C43.8115 5.86217 43.8736 5.8391 43.9378 5.83902H44.1629C44.7508 5.83902 45.3051 5.83902 45.5907 6.17485C45.6833 6.30386 45.7464 6.45168 45.7754 6.60781C45.8045 6.76394 45.7988 6.92454 45.7587 7.07821H45.762ZM55.1083 7.04127H53.5495C53.4849 7.04123 53.4223 7.06419 53.3731 7.10603C53.3239 7.14787 53.2911 7.20587 53.2807 7.26963L53.2136 7.70621L53.1027 7.54837C52.7667 7.05806 52.0142 6.89687 51.265 6.89687C50.4063 6.91505 49.5827 7.24114 48.9444 7.81568C48.3061 8.39022 47.8956 9.17494 47.7879 10.0268C47.7058 10.4434 47.715 10.8728 47.8148 11.2856C47.9145 11.6983 48.1025 12.0846 48.3657 12.4178C48.6136 12.6861 48.9186 12.8954 49.2581 13.0302C49.5977 13.1651 49.9632 13.222 50.3277 13.1969C50.7288 13.2003 51.1264 13.1229 51.4969 12.9694C51.8675 12.8159 52.2033 12.5895 52.4845 12.3036L52.414 12.7369C52.4082 12.7721 52.4095 12.8082 52.4177 12.843C52.4259 12.8778 52.4409 12.9106 52.4618 12.9397C52.4827 12.9687 52.5091 12.9933 52.5395 13.0121C52.5699 13.0308 52.6038 13.0435 52.6391 13.0492H54.087C54.1945 13.0488 54.2983 13.01 54.3796 12.9397C54.4609 12.8695 54.5145 12.7726 54.5305 12.6663L55.3738 7.3368C55.3795 7.30196 55.3784 7.26632 55.3703 7.23193C55.3623 7.19753 55.3476 7.16506 55.327 7.13636C55.3064 7.10767 55.2803 7.08331 55.2503 7.06469C55.2203 7.04607 55.1869 7.03355 55.152 7.02784L55.1083 7.04127ZM52.9381 10.0637C52.8781 10.4837 52.6662 10.8671 52.3423 11.1413C52.0185 11.4155 51.6053 11.5614 51.181 11.5514C50.9859 11.5727 50.7886 11.5459 50.6062 11.4735C50.4238 11.401 50.2619 11.285 50.1347 11.1357C50.0075 10.9863 49.9187 10.808 49.8762 10.6165C49.8337 10.425 49.8388 10.226 49.8909 10.0368C49.9504 9.61825 50.1601 9.23555 50.4808 8.96C50.8016 8.68446 51.2116 8.53485 51.6346 8.53905C51.8281 8.52889 52.0215 8.56154 52.2009 8.63469C52.3803 8.70783 52.5414 8.81965 52.6727 8.96219C52.7949 9.11645 52.8817 9.29567 52.927 9.48717C52.9723 9.67867 52.9749 9.87778 52.9347 10.0704L52.9381 10.0637ZM56.9427 4.26401L55.5988 12.7536C55.5931 12.7885 55.5942 12.8241 55.6023 12.8585C55.6103 12.8929 55.625 12.9254 55.6456 12.9541C55.6662 12.9828 55.6923 13.0071 55.7223 13.0258C55.7523 13.0444 55.7857 13.0569 55.8206 13.0626H57.2081C57.3161 13.063 57.4207 13.0246 57.5027 12.9543C57.5848 12.884 57.6388 12.7866 57.6549 12.6798L58.9719 4.3446C58.9776 4.30976 58.9764 4.27412 58.9684 4.23973C58.9604 4.20534 58.9457 4.17286 58.9251 4.14417C58.9045 4.11547 58.8784 4.09112 58.8484 4.0725C58.8184 4.05387 58.785 4.04135 58.7501 4.03564H57.2014C57.1383 4.0373 57.0778 4.06109 57.0305 4.10284C56.9832 4.14459 56.9521 4.20164 56.9427 4.26401V4.26401Z" fill="#179BD7"/>
<path d="M3.66626 14.6847L3.91487 13.1064H0.703125L2.55089 1.44317C2.55717 1.40758 2.57574 1.37532 2.60337 1.352C2.63099 1.32868 2.66591 1.31579 2.70207 1.31555H7.16357C8.64178 1.31555 9.66645 1.62451 10.1872 2.23235C10.4226 2.49062 10.59 2.80338 10.6743 3.14244C10.7549 3.55835 10.7549 3.98586 10.6743 4.40178V4.75775L10.9229 4.90216C11.1221 4.9942 11.3022 5.12294 11.4537 5.28164C11.6769 5.54334 11.8193 5.86415 11.8636 6.20516C11.922 6.65287 11.9027 7.1073 11.8065 7.54845C11.7121 8.07988 11.5268 8.59108 11.2589 9.05966C11.0378 9.43323 10.7415 9.75685 10.3888 10.01C10.0352 10.2569 9.63872 10.4357 9.21963 10.5373C8.74319 10.6579 8.25299 10.7154 7.76157 10.7086H7.42226C7.17338 10.7073 6.93232 10.7954 6.74301 10.9569C6.55369 11.1184 6.42872 11.3425 6.39087 11.5884L6.364 11.7295L5.90037 14.5067L5.88022 14.6108C5.88024 14.6299 5.87291 14.6482 5.85977 14.6619C5.84663 14.6757 5.82868 14.6839 5.80967 14.6847H3.66626Z" fill="#253B80"/>
<path d="M11.1717 4.46533C11.1636 4.55384 11.1478 4.64148 11.1246 4.72727C10.5367 7.7497 8.52432 8.78739 5.95425 8.78739H4.64402C4.49255 8.78789 4.3462 8.8422 4.23111 8.94064C4.11602 9.03907 4.0397 9.1752 4.01578 9.32471L3.34387 13.5729L3.15237 14.7785C3.13883 14.8662 3.16055 14.9557 3.2128 15.0274C3.26505 15.0991 3.34357 15.1473 3.43122 15.1613H5.80979C5.94259 15.1614 6.07104 15.1141 6.17204 15.0279C6.27304 14.9417 6.33996 14.8223 6.36076 14.6912L6.38428 14.5736L6.82102 11.7997L6.8479 11.6486C6.86942 11.5181 6.93665 11.3995 7.03758 11.314C7.13851 11.2285 7.26656 11.1817 7.39887 11.1818H7.73482C9.98237 11.1818 11.7428 10.2684 12.2568 7.62544C12.4718 6.52394 12.3609 5.61049 11.7932 4.93884C11.6144 4.74689 11.4042 4.58676 11.1717 4.46533V4.46533Z" fill="#179BD7"/>
<path d="M10.5533 4.22739C10.3661 4.17176 10.1753 4.12912 9.98222 4.09978C9.6011 4.03986 9.21566 4.01178 8.82988 4.01582H5.33258C5.19978 4.01578 5.07133 4.06312 4.97033 4.1493C4.86932 4.23549 4.80241 4.35487 4.78161 4.48598L4.03914 9.18752L4.01562 9.32521C4.03889 9.17541 4.11503 9.03888 4.23026 8.94033C4.34549 8.84177 4.49221 8.7877 4.64386 8.78789H5.95409C8.52416 8.78789 10.5365 7.74347 11.1245 4.72777C11.133 4.63933 11.1488 4.55173 11.1715 4.46583C11.0164 4.38387 10.8545 4.31533 10.6877 4.26098L10.5533 4.22739Z" fill="#222D65"/>
<path d="M4.78151 4.486C4.80165 4.3546 4.86839 4.23481 4.96953 4.14851C5.07068 4.0622 5.19949 4.01511 5.33247 4.01584H8.82978C9.2155 4.01348 9.60081 4.04155 9.98211 4.0998C10.2213 4.13744 10.4572 4.19358 10.6876 4.26771C10.8544 4.32207 11.0163 4.3906 11.1714 4.47256C11.3461 3.35427 11.1714 2.5953 10.5667 1.90686C9.89477 1.15126 8.69876 0.825509 7.16344 0.825509H2.71873C2.56639 0.82474 2.4189 0.879039 2.30345 0.978398C2.188 1.07776 2.11237 1.21548 2.09049 1.36619L0.229292 13.12C0.222209 13.171 0.225299 13.2229 0.238384 13.2727C0.251468 13.3224 0.274288 13.3691 0.305526 13.41C0.336763 13.4509 0.375798 13.4852 0.420377 13.511C0.464956 13.5367 0.514195 13.5534 0.565249 13.56H3.39064L4.06256 9.16739L4.78151 4.486Z" fill="#253B80"/>
</svg>
