<svg width="159" height="40" viewBox="0 0 159 40" fill="none" xmlns="http://www.w3.org/2000/svg">
<g clip-path="url(#clip0_6827_58262)">
<path d="M158.4 2H0V38H158.4V2Z" fill="#FFCC00"/>
<mask id="mask0_6827_58262" style="mask-type:luminance" maskUnits="userSpaceOnUse" x="-1" y="9" width="160" height="23">
<path d="M158.4 9.19995H-0.000488281V31.2767H158.4V9.19995Z" fill="white"/>
</mask>
<g mask="url(#mask0_6827_58262)">
<path d="M0 29.6211H19.2067L18.1029 31.1665H0V29.6211Z" fill="#D40511"/>
<path d="M158.4 31.1662H134.888L136.102 29.6208H158.51V31.1662H158.4Z" fill="#D40511"/>
<path d="M0 26.751H21.4144L20.2001 28.2963H0V26.751Z" fill="#D40511"/>
<path d="M0 23.8813H23.622L22.4078 25.4267H0V23.8813Z" fill="#D40511"/>
<path d="M158.4 28.2963H137.096L138.31 26.751H158.511V28.2963H158.4Z" fill="#D40511"/>
<path d="M140.407 23.8811H158.399V25.4265H139.193L140.407 23.8811Z" fill="#D40511"/>
<path d="M20.751 31.1663L30.9063 17.5891C30.9063 17.5891 42.1654 17.5891 43.49 17.5891C44.925 17.5891 44.925 18.141 44.1523 19.0241C43.49 19.9072 42.2758 21.5629 41.6135 22.446C41.2823 22.9979 40.62 23.7706 42.7173 23.7706C45.0353 23.7706 59.6059 23.7706 59.6059 23.7706C58.2813 25.7575 53.6452 31.2766 45.4769 31.2766C38.8539 31.1663 20.751 31.1663 20.751 31.1663Z" fill="#D40511"/>
<path d="M78.9237 23.8811L73.4045 31.2768H58.9443L64.4635 23.8811H78.9237Z" fill="#D40511"/>
<path d="M100.006 23.8811L94.4871 31.2768H79.9165L85.4357 23.8811H100.006Z" fill="#D40511"/>
<path d="M104.754 23.8813C104.754 23.8813 103.65 25.3163 103.209 25.9786C101.332 28.4071 102.988 31.277 108.949 31.277C115.793 31.277 132.35 31.277 132.35 31.277L137.869 23.8813H104.754Z" fill="#D40511"/>
<path d="M27.9267 9.19998L22.8491 15.9334C22.8491 15.9334 49.01 15.9334 50.4449 15.9334C51.8799 15.9334 51.8799 16.4853 51.1072 17.3683C50.4449 18.2514 49.2307 19.9072 48.5684 20.7902C48.2373 21.2318 47.575 22.1148 49.6723 22.1148C51.9903 22.1148 60.9313 22.1148 60.9313 22.1148C60.9313 22.1148 62.8079 19.6864 64.2428 17.5891C66.3401 14.8295 64.4636 9.0896 57.0679 9.0896C50.4449 9.19998 27.9267 9.19998 27.9267 9.19998Z" fill="#D40511"/>
<path d="M101.221 22.1148H65.6777L75.3914 9.19995H89.962L84.4428 16.5956H90.9555L96.4746 9.19995H111.045L101.221 22.1148Z" fill="#D40511"/>
<path d="M131.135 9.19995L121.421 22.1148H105.967L115.681 9.19995H131.135Z" fill="#D40511"/>
</g>
</g>
<defs>
<clipPath id="clip0_6827_58262">
<rect width="159" height="40" fill="white"/>
</clipPath>
</defs>
</svg>
