<svg width="111" height="40" viewBox="0 0 111 40" fill="none" xmlns="http://www.w3.org/2000/svg">
<path d="M102.801 30.5051C102.801 28.4519 104.424 27.0594 106.261 27.0594C108.097 27.0594 109.721 28.4454 109.721 30.5051C109.721 32.5647 108.097 33.9507 106.261 33.9507C104.424 33.9507 102.801 32.5647 102.801 30.5051ZM106.28 30.1164C106.867 30.1164 107.034 29.7991 107.034 29.5206C107.034 29.1903 106.867 28.9312 106.28 28.9312H105.526V30.1164H106.28ZM105.526 30.654V32.5452H104.921V28.3807H106.428C107.311 28.3807 107.717 28.7693 107.717 29.5271C107.717 29.9934 107.401 30.3626 106.995 30.4144V30.4339C107.343 30.4921 107.472 30.803 107.549 31.3794C107.607 31.7486 107.678 32.3963 107.807 32.5452H107.086C106.917 32.1566 106.937 31.5996 106.808 31.1398C106.699 30.79 106.512 30.6605 106.112 30.6605H105.52L105.526 30.654ZM109.057 30.5051C109.057 28.8405 107.878 27.6164 106.261 27.6164C104.643 27.6164 103.464 28.8405 103.464 30.5051C103.464 32.1696 104.643 33.3937 106.261 33.3937C107.878 33.3937 109.057 32.176 109.057 30.5051Z" fill="#EE7203"/>
<path d="M90.8035 33.9444L86.8143 29.4496L82.8585 33.9444H74.54L82.6715 24.7605L74.54 15.5701H83.1226L87.1501 20.0325L91.0285 15.5701H99.3151L91.2151 24.7216L99.4243 33.9444H90.8035Z" fill="#EE7203"/>
<path d="M58.5537 33.9443V5H74.5398V11.4508H65.3257V15.5699H74.5398V21.7811H65.3257V27.4806H74.5398V33.9443H58.5537Z" fill="#EE7203"/>
<path d="M47.7159 29.5402C45.2288 29.5402 43.6824 27.2086 43.6824 24.7798C43.6824 22.1827 45.0291 19.6827 47.7159 19.6827C50.4028 19.6827 51.6142 22.1827 51.6142 24.7798C51.6142 27.2474 50.4351 29.5402 47.7159 29.5402ZM23.7529 21.8652C24.1782 20.0259 25.5958 18.8277 27.3677 18.8277C29.32 18.8277 30.6667 19.9935 31.0211 21.8652H23.7529ZM51.8075 5V16.8458H51.7367C50.2418 15.1231 48.3796 14.5207 46.2147 14.5207C41.7816 14.5207 38.4439 17.5518 37.2712 21.5544C35.931 17.1437 32.4838 14.4365 27.3741 14.4365C23.2246 14.4365 19.9449 16.3082 18.2309 19.3588V15.5635H9.64832V11.4443H19.0106V5H2V33.9507H9.64832V21.7811H17.2708C17.0453 22.6748 16.9229 23.6334 16.9229 24.6437C16.9229 30.6801 21.5107 34.9158 27.3677 34.9158C32.2904 34.9158 35.5379 32.5907 37.2583 28.3549H30.7053C29.8162 29.6308 29.1461 30.0065 27.3741 30.0065C25.3187 30.0065 23.5468 28.2059 23.5468 26.0687H36.8975C37.4774 30.8678 41.1953 35 46.2919 35C48.4892 35 50.5059 33.9119 51.7367 32.0725H51.8075V33.9443H58.5538V5H51.8075Z" fill="#482683"/>
</svg>
