<svg width="34" height="40" viewBox="0 0 34 40" fill="none" xmlns="http://www.w3.org/2000/svg">
<g clip-path="url(#clip0_6827_60593)">
<mask id="mask0_6827_60593" style="mask-type:luminance" maskUnits="userSpaceOnUse" x="0" y="0" width="34" height="40">
<path d="M33.6114 0H0V40H33.6114V0Z" fill="white"/>
</mask>
<g mask="url(#mask0_6827_60593)">
<path d="M5.00143 33.0484C2.16067 30.7226 0.660156 27.3747 0.660156 23.3761V4.36886C5.14608 1.99085 10.5779 0.785645 16.8056 0.785645C23.0334 0.785645 28.4658 1.99085 32.9511 4.36886V23.3761C32.9511 27.3747 31.4506 30.7202 28.6099 33.0484C26.011 35.1785 17.7534 38.802 16.805 39.2143C15.8579 38.802 7.60032 35.1791 5.00143 33.0484Z" fill="#330000"/>
<path d="M32.0671 4.14561C29.9916 3.95294 27.8357 3.8257 25.6395 3.8257C17.4947 3.8257 8.76298 5.5765 1.54433 12.1973V23.5142C1.54433 27.2 2.90739 30.2779 5.49727 32.3888C7.78405 34.2494 14.8214 37.4365 16.8057 38.3122C18.7648 37.4497 25.7842 34.3047 28.1112 32.3888C30.7172 30.2413 32.0671 27.2349 32.0671 23.5142V4.14561ZM3.03643 22.3366V13.1457H5.95883V22.4662C5.95883 23.2957 6.15929 24.5237 7.49955 24.5237C7.98525 24.5434 8.4658 24.418 8.88002 24.1636V13.1457H11.7988V25.8304C10.4806 26.6531 8.94613 27.062 7.39331 27.0044C4.50033 27.0044 3.03343 25.4342 3.03343 22.3366M16.2271 32.9452H13.3029V13.8899C14.4858 13.1634 15.8565 12.8016 17.2439 12.8498C20.7341 12.8498 22.6517 15.4979 22.6517 19.7599C22.6517 24.022 20.7911 26.954 17.544 26.954C17.0995 26.962 16.6562 26.906 16.2277 26.7877L16.2271 32.9452ZM16.2271 24.3983C16.5307 24.512 16.8519 24.5717 17.176 24.5748C18.8566 24.5748 19.6621 23.0304 19.6621 19.8331C19.6621 16.5578 18.9592 15.2032 17.2613 15.2032C16.905 15.2002 16.5521 15.272 16.2253 15.4138L16.2271 24.3983ZM23.3143 16.6605C23.3326 15.636 23.7554 14.6604 24.4903 13.9465C25.2253 13.2326 26.2127 12.8384 27.2373 12.8498C28.3841 12.789 29.5169 13.1242 30.446 13.7993V16.3424C29.7574 15.6239 28.821 15.1947 27.8273 15.1419C26.9984 15.1347 26.1359 15.4991 26.1077 16.5386C26.0795 17.6028 26.9402 18.0229 28.0283 18.6627C30.4706 20.0984 30.9429 21.3889 30.8865 23.0941C30.8307 24.9637 29.542 27.0056 26.6533 27.0056C25.5205 26.9929 24.4113 26.6797 23.4392 26.0981V23.405C24.2115 24.1028 25.1954 24.5217 26.2337 24.5946C27.3063 24.6 28.0121 23.9854 27.9869 22.9656C27.9647 22.0479 27.4467 21.5491 26.1605 20.7935C23.7495 19.3794 23.3161 18.2156 23.3119 16.6605M4.51894 33.5808C1.56053 31.1578 0 27.676 0 23.5142V3.72967C4.66899 1.25443 10.3235 0 16.8057 0C23.2879 0 28.9424 1.25443 33.6114 3.72967V23.5142C33.6114 27.676 32.0509 31.1578 29.0925 33.5814C26.388 35.7986 17.7925 39.5697 16.8057 39.9988C15.819 39.5697 7.22346 35.7986 4.51894 33.5808ZM27.5332 37.7276V39.4448H27.8429V38.7282H27.8867C27.9101 38.763 28.353 39.4448 28.353 39.4448H28.7282C28.7282 39.4448 28.2576 38.7564 28.2096 38.6916C28.3169 38.6733 28.4141 38.6173 28.4838 38.5336C28.5534 38.45 28.5909 38.3442 28.5895 38.2354C28.591 38.1629 28.5766 38.0909 28.5475 38.0245C28.5183 37.9581 28.475 37.8988 28.4207 37.8508C28.3663 37.8027 28.3021 37.7671 28.2326 37.7464C28.1631 37.7256 28.0899 37.7203 28.0181 37.7306L27.5332 37.7276ZM27.9845 37.9785C28.248 37.9785 28.2846 38.1076 28.2846 38.2186C28.2846 38.3795 28.2156 38.4881 27.8837 38.4881H27.8435V37.9773L27.9845 37.9785ZM29.1969 38.5907C29.1965 38.8205 29.1279 39.045 28.9999 39.2358C28.8719 39.4267 28.6903 39.5753 28.4779 39.663C28.2654 39.7507 28.0318 39.7734 27.8065 39.7284C27.5812 39.6833 27.3742 39.5725 27.2118 39.41C27.0494 39.2474 26.9389 39.0404 26.8941 38.815C26.8493 38.5896 26.8722 38.356 26.9601 38.1437C27.048 37.9314 27.1968 37.7499 27.3878 37.6221C27.5788 37.4943 27.8033 37.426 28.0331 37.4257C28.1861 37.4256 28.3376 37.4556 28.479 37.5141C28.6203 37.5726 28.7487 37.6584 28.8568 37.7667C28.965 37.8749 29.0506 38.0034 29.109 38.1448C29.1674 38.2862 29.1972 38.4377 29.1969 38.5907ZM28.0295 37.1772C27.7506 37.1776 27.4781 37.2606 27.2463 37.4158C27.0146 37.5709 26.834 37.7913 26.7274 38.049C26.6208 38.3068 26.593 38.5903 26.6474 38.8638C26.7019 39.1374 26.8362 39.3886 27.0333 39.5859C27.2305 39.7832 27.4817 39.9176 27.7552 39.9721C28.0288 40.0267 28.3123 39.999 28.5701 39.8925C28.8279 39.786 29.0483 39.6055 29.2036 39.3738C29.3588 39.1421 29.4419 38.8696 29.4424 38.5907C29.4419 38.2161 29.2929 37.8569 29.0281 37.592C28.7633 37.327 28.4042 37.1779 28.0295 37.1772Z" fill="#FFBE00"/>
</g>
</g>
<defs>
<clipPath id="clip0_6827_60593">
<rect width="34" height="40" fill="white"/>
</clipPath>
</defs>
</svg>
