<svg width="191" height="40" viewBox="0 0 191 40" fill="none" xmlns="http://www.w3.org/2000/svg">
<g clip-path="url(#clip0_6827_56013)">
<path fill-rule="evenodd" clip-rule="evenodd" d="M190.538 31.5112C190.538 33.6246 188.9 35.2702 186.779 35.2702C184.658 35.2702 183.02 33.6255 183.02 31.5112C183.02 29.404 184.658 27.7543 186.779 27.7543C188.9 27.7543 190.538 29.404 190.538 31.5112ZM183.605 31.5112C183.605 33.3101 184.959 34.7332 186.779 34.7332C188.593 34.7332 189.948 33.3091 189.948 31.5112C189.948 29.7134 188.594 28.2892 186.779 28.2892C184.959 28.2892 183.605 29.7134 183.605 31.5112ZM185.95 33.6868H185.414V29.3418H187.081C188.066 29.3418 188.493 29.7644 188.493 30.5444C188.493 31.3101 187.993 31.6573 187.41 31.7573L188.7 33.6878H188.071L186.851 31.7573H185.951L185.95 33.6868ZM186.656 31.2999C187.314 31.2999 187.959 31.2815 187.959 30.5444C187.959 29.938 187.455 29.7971 186.932 29.7971H185.949V31.3009L186.656 31.2999Z" fill="#333366"/>
<path fill-rule="evenodd" clip-rule="evenodd" d="M44.2923 36.0779L51.1283 3.92224H6.3726L-0.462402 36.0779H44.2923Z" fill="white"/>
<path fill-rule="evenodd" clip-rule="evenodd" d="M7.30525 5.2516C7.30525 5.2516 32.1899 10.3674 32.6831 10.4511C38.4002 11.4598 38.2236 12.5644 38.2236 12.5644C42.2265 12.5419 42.7197 12.7053 43.4199 13.2882C45.5282 15.0492 42.102 20.2304 42.102 20.2304C41.613 20.5959 4.59473 34.8928 4.59473 34.8928H43.323L49.6578 5.11072L7.32975 5.1148L7.30525 5.2516Z" fill="#333366"/>
<path fill-rule="evenodd" clip-rule="evenodd" d="M36.278 14.8991C35.7165 15.1768 34.2475 15.3268 33.5644 15.388C32.9009 15.4442 32.7232 15.5096 32.713 15.7627C32.7028 15.9894 32.811 16.1201 33.7574 16.1201C35.932 16.1201 39.8471 15.2982 41.0263 15.6739C41.648 15.871 41.1448 16.9847 40.6394 18.4406C40.4423 19.0041 40.8293 18.9674 41.0538 18.7173C41.2805 18.4733 42.2942 16.6131 42.4045 15.6647C42.5597 14.3202 41.4112 14.118 39.8165 14.118H37.2867C37.157 14.118 37.0457 14.2079 36.8896 14.4151C36.7507 14.5989 36.6364 14.7163 36.278 14.8991Z" fill="#333366"/>
<path fill-rule="evenodd" clip-rule="evenodd" d="M5.86739 11.9968L1.00684 34.8999C1.00684 34.8999 15.8999 27.5901 17.7171 26.655C21.4516 24.7408 26.6093 22.2028 31.3779 20.5775C32.2876 20.2682 36.1833 19.0696 38.4467 18.6664C39.3298 18.5071 39.6983 18.3611 39.6871 18.1977C39.6554 17.7271 38.7745 17.7006 37.2767 17.77C32.7122 17.9865 23.962 21.4678 21.4475 22.797L18.6043 13.9886H36.7653C37.5779 11.7007 26.0172 12.0192 25.6526 11.9968H5.86739ZM60.2942 16.4776C57.3519 16.4776 55.5919 15.2943 56.1687 12.6777C57.1325 8.14997 57.7716 5.11072 57.7716 5.11072H60.233C60.233 5.11072 58.723 12.104 58.77 11.9304C58.383 13.6588 58.77 14.7001 60.6536 14.7196C62.4575 14.7196 63.3804 13.6782 63.751 11.9304L65.214 5.11072H67.6754C66.0215 12.6777 67.6754 5.11072 66.0409 12.6777C65.4774 15.2943 63.2395 16.4776 60.2942 16.4776ZM77.4802 16.2754H74.3858L71.6253 7.99479H71.5783L69.853 16.2754H67.6692L70.0378 5.11072H73.2302L75.8794 13.4852H75.909L77.6701 5.11072H79.8497L77.4802 16.2754ZM82.306 16.2754H79.8497L82.2131 5.11072H84.6766L82.306 16.2754ZM95.3401 6.88709H91.8672L89.8754 16.2754H87.4126L89.4064 6.88709H85.9344L86.3243 5.11072H95.7107L95.3401 6.88709ZM105.074 6.88709H99.4488L98.8272 9.79874H103.731L103.374 11.4465H98.4699L97.8321 14.499H103.451L103.076 16.2754H94.9837L97.3659 5.11072H105.445L105.074 6.88709ZM109.92 16.2754H104.875L107.244 5.11072H112.662C116.038 5.11072 117.176 7.35468 116.691 10.202C116.023 14.2223 113.033 16.2754 109.92 16.2754ZM111.85 6.88709H109.342L107.724 14.5H109.484C112.27 14.5 113.875 12.6788 114.309 10.1744C114.622 8.39805 113.89 6.88709 111.85 6.88709ZM128.662 6.88709H126.026C124.687 6.88709 124.083 7.16888 123.959 7.71302C123.584 9.4894 128.396 10.9034 127.943 13.6445C127.694 15.1718 126.355 16.2764 123.273 16.2764H119.507L119.877 14.5H122.917C123.848 14.5 125.003 14.548 125.22 13.6118C125.58 12.006 120.843 10.4235 121.199 7.74671C121.417 6.13877 122.85 5.11072 125.748 5.11072H129.05L128.662 6.88709ZM139.329 6.88709H135.853L133.863 16.2754H131.403L133.396 6.88709H129.923L130.316 5.11072H139.704L139.329 6.88709ZM139.776 16.2754L140.741 14.499H144.258L143.279 7.32405L138.37 16.2754H135.913L142.311 5.11072H145.253L146.995 16.2754H139.776ZM156.983 6.88709H153.51L151.522 16.2754H149.061L151.051 6.88709H147.582L147.969 5.11072H157.358L156.983 6.88709ZM166.701 6.88709H161.082L160.463 9.79874H165.366L165.009 11.4465H160.1L159.464 14.499H165.087L164.71 16.2754H156.612L158.999 5.11072H167.08L166.701 6.88709ZM175.404 6.88709H172.77C171.432 6.88709 170.825 7.16888 170.7 7.71302C170.328 9.4894 175.135 10.9034 174.686 13.6445C174.435 15.1718 173.097 16.2764 170.014 16.2764H166.249L166.619 14.5H169.658C170.591 14.5 171.742 14.548 171.963 13.6118C172.321 12.006 167.585 10.4235 167.945 7.74671C168.166 6.13877 169.594 5.11072 172.496 5.11072H175.793L175.404 6.88709ZM56.9497 30.6243C56.5628 30.6243 56.1401 30.5641 55.7859 30.5304L55.6613 28.9092C55.9716 28.9388 56.378 28.9847 56.7476 28.9847C58.431 28.9847 59.0395 27.8341 59.1784 27.1665C59.4418 25.9505 58.821 25.4993 57.9175 25.4993H55.9084L53.9165 34.8886H51.4572L53.8227 23.7239H59.162C61.5774 23.7239 61.8562 25.8281 61.5601 27.2216C61.1099 29.3481 59.163 30.6243 56.9497 30.6243ZM66.9944 35.0908C63.557 35.0908 61.6214 32.4752 62.2911 29.3002C63.1354 25.3257 66.0154 23.5218 69.4701 23.5218C72.8963 23.5218 74.8738 25.9843 74.1572 29.3002C73.2853 33.3624 70.4839 35.0908 66.9944 35.0908ZM69.0832 25.2982C66.8536 25.2982 65.3773 26.7775 64.8026 29.3002C64.3156 31.4655 65.0812 33.3164 67.3844 33.3164C69.611 33.3164 71.1046 31.8229 71.6355 29.3002C72.1184 27.0409 71.3547 25.2982 69.0832 25.2982ZM83.085 25.5004H80.4541C79.1147 25.5004 78.5062 25.777 78.3817 26.3222C78.0111 28.1026 82.8237 29.5166 82.3694 32.2578C82.1212 33.7789 80.7808 34.8896 77.6987 34.8896H73.9325L74.3031 33.1154H77.3373C78.2735 33.1154 79.4271 33.1613 79.6456 32.2261C79.9999 30.6253 75.2699 29.0378 75.6272 26.36C75.8427 24.753 77.275 23.726 80.1744 23.726H83.475L83.085 25.5004ZM93.7528 25.5004H90.2782L88.2886 34.8896H85.8302L87.8231 25.5004H84.3469L84.7368 23.725H94.128L93.7528 25.5004ZM94.2164 34.8896L95.1811 33.1154H98.7021L97.7205 25.9363L92.8132 34.8896H90.355L96.7495 23.725H99.6945L101.437 34.8896H94.2164ZM110.273 34.8896H102.722L105.089 23.725H107.565L105.573 33.1154H110.66L110.273 34.8896ZM123.584 25.5004H120.953C119.614 25.5004 119.007 25.777 118.882 26.3222C118.513 28.1026 123.323 29.5166 122.869 32.2578C122.62 33.7789 121.282 34.8896 118.197 34.8896H114.432L114.8 33.1154H117.838C118.773 33.1154 119.926 33.1613 120.145 32.2261C120.498 30.6253 115.769 29.0378 116.129 26.36C116.344 24.753 117.778 23.726 120.673 23.726H123.975L123.584 25.5004ZM133.811 25.5004H128.189L127.568 28.413H132.472L132.116 30.0598H127.212L126.569 33.1154H132.194L131.817 34.8896H123.723L126.105 23.725H134.185L133.811 25.5004ZM140.888 30.0741L142.727 34.8896H140.035L138.009 28.7703C138.319 28.8162 138.709 28.8019 138.944 28.8019C140.202 28.8019 141.355 28.2711 141.624 26.948C141.762 26.2476 141.634 25.482 140.269 25.482H138.055L136.063 34.8896H133.603L135.973 23.725H141.17C143.349 23.725 144.22 24.7061 144.084 26.5703C143.927 28.6764 142.521 29.8443 140.888 30.0741ZM149.974 34.8896H147.068L145.384 23.725H147.841L148.995 32.6763L153.896 23.725H156.327L149.974 34.8896ZM157.907 34.8896H155.448L157.81 23.725H160.273L157.907 34.8896ZM170.251 25.6555C169.553 25.4524 168.776 25.2982 167.634 25.2982C165.406 25.2982 163.51 26.7775 162.981 29.3002C162.451 31.8229 163.709 33.3164 165.938 33.3164C167.108 33.3164 168.04 33.1408 168.929 32.9255L168.321 34.8417C167.42 34.9815 166.516 35.0908 165.562 35.0908C162.139 35.0908 159.601 33.2961 160.459 29.3002C161.298 25.2982 164.601 23.5218 168.023 23.5218C168.851 23.5218 169.677 23.6311 170.47 23.7709L170.251 25.6555ZM180.172 25.5004H174.548L173.924 28.413H178.835L178.473 30.0598H173.571L172.929 33.1154H178.551L178.175 34.8896H170.08L172.461 23.725H180.542L180.172 25.5004Z" fill="#333366"/>
<path fill-rule="evenodd" clip-rule="evenodd" d="M181.25 20.4171L181.421 19.5912H54.7004L54.5259 20.4171H181.25Z" fill="#CC262D"/>
</g>
<defs>
<clipPath id="clip0_6827_56013">
<rect width="191" height="40" fill="white"/>
</clipPath>
</defs>
</svg>
