<svg width="24" height="24" viewBox="0 0 24 24" fill="none" xmlns="http://www.w3.org/2000/svg">
<path d="M17.627 6.04688C17.9425 6.04688 18.2367 6.15565 18.4775 6.34863L18.5781 6.43652L19.5645 7.42285C19.8116 7.67992 19.9531 8.01267 19.9531 8.37304C19.953 8.73321 19.8114 9.06528 19.5645 9.32227L18.5107 10.376L18.5254 10.3906L9.99902 18.918C9.7639 19.153 9.47766 19.3221 9.15918 19.4121L9.02051 19.4453L6.57031 19.9707C6.3559 20.0165 6.16089 19.8596 6.14453 19.6543L6.14844 19.5645L6.59473 17.0195C6.66191 16.6921 6.80947 16.3939 7.02539 16.1445L7.12305 16.041L15.1299 8.01465L15.1631 7.98145L15.1465 7.96582L16.6768 6.43652C16.9339 6.18899 17.2663 6.04695 17.627 6.04688ZM15.6074 8.64159L7.6748 16.5928C7.55368 16.7139 7.46246 16.8555 7.40527 17.0127L7.35938 17.1748V17.1777L7.06836 18.875C7.05297 18.9651 7.12227 19.0441 7.20801 19.0469L7.24512 19.043L8.86426 18.6807C9.03101 18.6462 9.18507 18.5769 9.31934 18.4766L9.44727 18.3652L17.3896 10.4238L17.4229 10.3916L15.6396 8.6084L15.6074 8.64159ZM17.627 6.82715C17.5176 6.8272 17.4117 6.85804 17.3154 6.9209L17.2227 6.99414L16.251 7.96582L18.0342 9.74901L19.0059 8.77734C19.1181 8.6585 19.1728 8.51864 19.1729 8.37304C19.1729 8.26372 19.1418 8.15777 19.0791 8.06151L19.0059 7.96875L18.0312 6.99414L17.9385 6.9209C17.8422 6.85815 17.7363 6.82715 17.627 6.82715Z" fill="black" stroke="white" stroke-width="0.0933322"/>
<path d="M9.17364 5.23048C10.2511 5.54029 10.4597 5.74891 10.7695 6.82637C10.7989 6.92943 10.8932 7 11 7C11.1068 7 11.2011 6.92942 11.2305 6.82637C11.5403 5.74891 11.7489 5.54029 12.8264 5.23048C12.9294 5.20112 13 5.10681 13 5C13 4.89319 12.9294 4.79888 12.8264 4.76952C11.7489 4.45971 11.5403 4.25109 11.2305 3.17364C11.2011 3.07058 11.1068 3 11 3C10.8932 3 10.7989 3.07058 10.7695 3.17364C10.4597 4.25109 10.2511 4.45971 9.17364 4.76952C9.07058 4.79888 9 4.89319 9 5C9 5.10681 9.07058 5.20112 9.17364 5.23048ZM11 3.97877C11.223 4.49782 11.5022 4.77702 12.0213 5C11.5022 5.22298 11.223 5.50156 11 6.02124C10.777 5.50218 10.4978 5.22298 9.97878 5C10.4985 4.77702 10.777 4.49782 11 3.97877Z" fill="black"/>
<path d="M3.24531 8.80106C5.20428 9.36431 5.58321 9.74334 6.1466 11.7023C6.18822 11.8485 6.32195 11.9485 6.47339 11.9485C6.62483 11.9485 6.75855 11.8485 6.80018 11.7023C7.36343 9.74338 7.74246 9.36445 9.70147 8.80106C9.84759 8.75943 9.94766 8.62571 9.94766 8.47427C9.94766 8.32283 9.84758 8.1891 9.70147 8.14748C7.74339 7.58423 7.36357 7.2052 6.80018 5.24619C6.75856 5.10007 6.62571 5 6.47427 5C6.32283 5 6.18911 5.10007 6.14749 5.24619C5.58423 7.20516 5.20521 7.58409 3.2462 8.14748C3.10007 8.1891 3.00001 8.32283 3.00001 8.47427C2.99912 8.62571 3.10008 8.75943 3.24531 8.80106ZM6.47421 6.42507C6.90284 7.5188 7.42977 8.04573 8.52352 8.47438C7.42979 8.90301 6.90286 9.42995 6.47421 10.5237C6.04558 9.42997 5.51864 8.90303 4.42489 8.47438C5.51774 8.04575 6.04467 7.51882 6.47421 6.42507Z" fill="black"/>
</svg>
