<svg width="24" height="24" viewBox="0 0 24 24" fill="none" xmlns="http://www.w3.org/2000/svg">
<path d="M18.5908 11.3436H13.3584V17.8007H18.3906L18.4307 17.7958C18.5089 17.7799 18.5709 17.7188 18.5869 17.6405L18.5908 17.6005V11.3436ZM11.1836 7.80066V17.8007H12.6826V7.80066H11.1836ZM7.61035 5.44226C7.5842 5.50612 7.56757 5.57505 7.56152 5.64734L7.55957 5.72058L7.57129 5.57703C7.58005 5.53042 7.59283 5.4852 7.61035 5.44226ZM16.4238 5.49207C16.4461 5.56281 16.4605 5.63755 16.459 5.7157C16.4605 5.63698 16.446 5.56237 16.4238 5.49207ZM16.3438 5.31726C16.3238 5.28717 16.3006 5.2598 16.2764 5.23328C16.3005 5.25997 16.324 5.28711 16.3438 5.31726ZM5.37305 17.6405C5.38904 17.7186 5.45021 17.7798 5.52832 17.7958L5.56836 17.8007H10.6016V11.3436H5.36816V17.6005L5.37305 17.6405ZM17.0605 6.85144C17.0605 6.27558 16.5749 5.77129 15.8984 5.70984L15.7607 5.703L15.7588 5.70203L15.7578 5.70007C15.3235 5.70063 14.875 5.92756 14.4463 6.30359L14.3008 6.44128C13.9662 6.77926 13.6638 7.23116 13.417 7.60242V7.9989C14.1067 8.0005 14.9571 7.9989 15.7588 7.9989C16.4601 7.9989 16.99 7.53061 17.0537 6.9657L17.0605 6.85144ZM6.96387 6.97058C7.02721 7.53574 7.55735 8.00465 8.25879 8.00476C9.06049 8.00476 9.91171 8.00396 10.6016 8.00476V7.60242C10.3194 7.17877 9.96377 6.65397 9.57129 6.30945C9.36257 6.12639 9.14956 5.97835 8.93555 5.87488C8.93965 5.85835 8.94437 5.84203 8.94727 5.82507C8.94441 5.84207 8.9396 5.85836 8.93555 5.87488C8.70999 5.76583 8.48359 5.70625 8.26074 5.70593L8.25879 5.70691L8.25781 5.70886L8.12012 5.71472C7.44349 5.77593 6.95821 6.28046 6.95801 6.85632L6.96387 6.97058ZM17.7607 6.85144C17.7607 7.26185 17.6204 7.62957 17.3887 7.92761H19.0586V8.62683H13.3584V10.7762H19.0586C19.1552 10.7762 19.2362 10.7082 19.2549 10.6171L19.2588 10.577V8.82703C19.2587 8.73058 19.1905 8.65048 19.0996 8.63171L19.0586 8.62683V7.92761C19.5556 7.92761 19.9589 8.33006 19.959 8.82703V10.577C19.9588 10.9936 19.6754 11.3428 19.291 11.4452V17.6005C19.2909 18.0974 18.8876 18.4999 18.3906 18.4999H5.56836C5.07145 18.4998 4.66906 18.0974 4.66895 17.6005V11.4452C4.28423 11.343 4.00014 10.9939 4 10.577V8.82703C4.0001 8.33006 4.4034 7.92761 4.90039 7.92761V8.62683L4.86035 8.63171C4.76909 8.65021 4.70028 8.73033 4.7002 8.82703V10.577C4.70036 10.6873 4.79004 10.7762 4.90039 10.7762H10.6016V8.62683H4.90039V7.92761H6.625C6.39581 7.63048 6.25781 7.26428 6.25781 6.85632C6.25802 5.80848 7.16226 5.03513 8.20996 5.0116C8.22706 5.01038 8.24429 5.00572 8.26172 5.00574L8.3877 5.00964C8.92903 5.04476 9.42305 5.29735 9.84375 5.62585L10.0332 5.78308L10.208 5.94714C10.566 6.30678 10.8749 6.75477 11.1064 7.10046H12.9111C13.1784 6.70007 13.552 6.15679 13.9844 5.77722H13.9854L14.1738 5.62097C14.6271 5.26686 15.1657 5.00063 15.7568 4.99988L15.8076 5.00574C16.8556 5.02904 17.7607 5.80325 17.7607 6.85144Z" fill="#1E1E1E"/>
</svg>
