<svg width="24" height="24" viewBox="0 0 24 24" fill="none" xmlns="http://www.w3.org/2000/svg">
<path d="M5.11001 5.10994C7.92001 2.29994 12.47 2.29994 15.28 5.10994C17.91 7.73994 18.07 11.9199 15.76 14.7399L21.14 20.1699C21.37 20.3999 21.37 20.7799 21.14 20.9999C20.91 21.2299 20.54 21.2299 20.31 20.9999L14.94 15.5799C12.12 18.0699 7.81001 17.9699 5.11001 15.2699C2.31001 12.4599 2.31001 7.90994 5.11001 5.10994ZM14.45 5.93994C12.1 3.58994 8.29001 3.58994 5.94001 5.93994C3.60001 8.27994 3.60001 12.0899 5.94001 14.4399C8.29001 16.7899 12.1 16.7899 14.45 14.4399C16.8 12.0899 16.8 8.27994 14.45 5.93994Z" fill="black"/>
</svg>
