<svg width="24" height="24" viewBox="0 0 24 24" fill="none" xmlns="http://www.w3.org/2000/svg">
<path d="M20 14.4601V15.3601H4V14.4601H20ZM20.1 14.3601V9.06006C20.1 9.00006 20.06 8.96006 20 8.96006H17.4V10.7601C17.4 11.0101 17.2 11.2101 16.95 11.2101C16.7 11.2101 16.5 11.0101 16.5 10.7601V8.96006H12.45V10.7601C12.45 11.0101 12.25 11.2101 12 11.2101C11.75 11.2101 11.55 11.0101 11.55 10.7601V8.96006H7.5V10.7601C7.5 11.0101 7.3 11.2101 7.05 11.2101C6.8 11.2101 6.6 11.0101 6.6 10.7601V8.96006H4C3.94 8.96006 3.9 9.00006 3.9 9.06006V14.3601C3.9 14.4101 3.94 14.4601 4 14.4601V15.3601L3.9 15.3501C3.43 15.3001 3.05 14.9301 3 14.4601V14.3601V9.06006C3 8.54006 3.39 8.11006 3.9 8.06006H4H20H20.1C20.61 8.11006 21 8.54006 21 9.06006V14.3601V14.4601C20.95 14.9301 20.57 15.3001 20.1 15.3501L20 15.3601V14.4601C20.06 14.4601 20.1 14.4101 20.1 14.3601Z" fill="black"/>
</svg>
