<svg width="24" height="24" viewBox="0 0 24 24" fill="none" xmlns="http://www.w3.org/2000/svg">
<path d="M11.85 3C14.72 3 17.05 5.33 17.05 8.21C17.05 10.06 16.08 11.69 14.62 12.61C18.46 13.67 21.3 17 21.3 21C21.3 21.32 21.03 21.58 20.71 21.58C20.39 21.58 20.13 21.32 20.13 21C20.13 16.85 16.53 13.42 12 13.42C7.62002 13.42 4.10002 16.64 3.89002 20.61L3.88002 21C3.81002 21.38 3.58002 21.58 3.30002 21.58C3.01002 21.58 2.78002 21.38 2.72002 21.12L2.71002 21L2.72002 20.55C2.93002 16.82 5.59002 13.75 9.17002 12.67C7.66002 11.76 6.65002 10.1 6.65002 8.21C6.65002 5.33 8.98002 3 11.85 3ZM11.85 4.17C9.62002 4.17 7.82002 5.97 7.82002 8.21C7.82002 10.44 9.62002 12.25 11.85 12.25C14.07 12.25 15.88 10.44 15.88 8.21C15.88 5.97 14.07 4.17 11.85 4.17Z" fill="black"/>
</svg>
