<svg width="24" height="24" viewBox="0 0 24 24" fill="none" xmlns="http://www.w3.org/2000/svg">
<path fill-rule="evenodd" clip-rule="evenodd" d="M12.3027 18.8833C12.4921 18.8833 12.6822 18.8444 12.8629 18.7669L19.2305 16.0451C19.7513 15.816 20.0871 15.3037 20.0871 14.7396V9.26185C20.0865 8.69065 19.7479 8.17802 19.2242 7.95443L12.8641 5.23412C12.5015 5.07832 12.1033 5.07771 11.7418 5.23334L5.37928 7.95443C4.85554 8.17803 4.51681 8.69067 4.51678 9.26107V14.7392C4.51679 15.3034 4.85318 15.8161 5.37889 16.047L11.7402 18.7658L11.8094 18.7935C11.9701 18.8536 12.1366 18.8833 12.3027 18.8833ZM12.743 11.9193L12.6621 11.9451V18.0689L18.9433 15.3837L18.9441 15.3833C19.1986 15.272 19.3652 15.0184 19.3652 14.7392V9.09896L12.8641 11.8829C12.8497 11.8888 12.8338 11.8938 12.8133 11.8994C12.7945 11.9045 12.768 11.9112 12.743 11.9193ZM12.584 11.2185L12.5848 11.2181L15.0816 10.149L8.7496 7.29701L8.70272 7.31732L5.80428 8.55717L12.025 11.2204L12.0266 11.2212C12.2018 11.2934 12.4031 11.294 12.584 11.2185ZM12.5789 5.89584C12.4893 5.85765 12.3951 5.83724 12.3008 5.83724C12.2304 5.83727 12.1608 5.84866 12.093 5.87045L12.0254 5.89584L9.65077 6.91185L15.9355 9.74154L15.982 9.76264L16.0293 9.74232L18.7988 8.55639L12.5789 5.89584ZM5.66405 15.3845L5.66483 15.3849L11.941 18.0681V11.9439L11.8586 11.9189C11.8407 11.9134 11.8209 11.9081 11.8049 11.9038L11.793 11.9005C11.7744 11.8955 11.76 11.891 11.7469 11.8857L5.23788 9.09896V14.7392C5.23788 15.0189 5.40527 15.2721 5.66405 15.3845Z" fill="#1E1E1E"/>
</svg>
