<svg width="24" height="24" viewBox="0 0 24 24" fill="none" xmlns="http://www.w3.org/2000/svg">
<path d="M13.81 5.5C14.33 5.5 14.77 5.86 14.77 6.32V7.06H18.02C18.37 7.11 18.55 7.31 18.55 7.57C18.49 7.91 18.28 8.1 18.02 8.1H17.3L16.58 16.91C16.58 17.91 15.75 18.72 14.74 18.72H9.26001C8.25001 18.72 7.42001 17.89 7.42001 16.89L6.70001 8.11H5.97001C5.68001 8.11 5.45001 7.88 5.45001 7.58C5.45001 7.29 5.68001 7.06 5.97001 7.06H9.22001V6.32C9.22001 5.86 9.65001 5.5 10.19 5.5H13.81ZM10.26 7.08H13.74V6.55H10.26V7.08ZM8.44001 16.94C8.48001 17.36 8.84001 17.68 9.24001 17.68H14.74C15.17 17.68 15.54 17.31 15.54 16.88V16.84L16.25 8.09H7.72001L8.44001 16.86V16.94Z" fill="black"/>
</svg>
