<svg width="24" height="24" viewBox="0 0 24 24" fill="none" xmlns="http://www.w3.org/2000/svg">
<path d="M11.02 3.72991C11.4 3.51991 11.85 3.48991 12.24 3.64991L12.41 3.72991L12.98 4.05991C13.24 4.19991 13.53 4.28991 13.82 4.30991H13.94L14.61 4.31991C15.04 4.32991 15.44 4.52991 15.7 4.85991L15.8 5.00991L16.14 5.57991C16.29 5.83991 16.5 6.04991 16.74 6.21991L16.85 6.28991L17.41 6.61991C17.79 6.83991 18.03 7.21991 18.09 7.63991L18.11 7.81991L18.12 8.47991C18.12 8.77991 18.19 9.06991 18.31 9.32991L18.37 9.44991L18.7 10.0199C18.91 10.3999 18.93 10.8499 18.78 11.2399L18.7 11.4099L18.37 11.9799C18.23 12.2399 18.14 12.5299 18.12 12.8199V12.9399L18.11 13.6099C18.1 14.0399 17.9 14.4399 17.57 14.6999L17.41 14.7999L16.85 15.1399C16.59 15.2899 16.38 15.4999 16.21 15.7399L16.14 15.8499L15.8 16.4099C15.58 16.7899 15.21 17.0299 14.79 17.0899L14.61 17.1099L13.94 17.1199C13.65 17.1199 13.36 17.1899 13.1 17.3099L12.98 17.3699L12.41 17.6999C12.03 17.9099 11.58 17.9299 11.19 17.7799L11.02 17.6999L10.45 17.3699C10.19 17.2299 9.89998 17.1399 9.60998 17.1199H9.47998L8.81998 17.1099C8.38998 17.0999 7.98998 16.8999 7.72998 16.5699L7.61998 16.4099L7.28998 15.8499C7.13998 15.5899 6.92998 15.3799 6.68998 15.2099L6.57998 15.1399L6.00998 14.7999C5.63998 14.5799 5.39998 14.2099 5.33998 13.7899L5.31998 13.6099L5.30998 12.9399C5.30998 12.6499 5.23998 12.3599 5.10998 12.0999L5.05998 11.9799L4.72998 11.4099C4.51998 11.0299 4.49998 10.5799 4.64998 10.1899L4.72998 10.0199L5.05998 9.44991C5.19998 9.18991 5.28998 8.89991 5.30998 8.60991V8.47991L5.31998 7.81991C5.32998 7.38991 5.52998 6.98991 5.85998 6.72991L6.00998 6.61991L6.57998 6.28991C6.83998 6.13991 7.04998 5.92991 7.21998 5.68991L7.28998 5.57991L7.61998 5.00991C7.83998 4.63991 8.21998 4.39991 8.63998 4.33991L8.81998 4.31991L9.47998 4.30991C9.77998 4.30991 10.07 4.23991 10.33 4.10991L10.45 4.05991L11.02 3.72991Z" stroke="black" stroke-width="0.6"/>
<path d="M11.71 15.8501C14.5488 15.8501 16.85 13.5488 16.85 10.7101C16.85 7.87132 14.5488 5.57007 11.71 5.57007C8.87126 5.57007 6.57001 7.87132 6.57001 10.7101C6.57001 13.5488 8.87126 15.8501 11.71 15.8501Z" stroke="black" stroke-width="0.6"/>
<path d="M10.06 10.58L11.13 11.76C11.19 11.83 11.31 11.83 11.38 11.76L13.91 9" stroke="black" stroke-width="0.6" stroke-linecap="round"/>
<path d="M13 17.5001L14.41 20.4401C14.42 20.4601 14.46 20.4701 14.48 20.4401L15.55 18.6001C15.63 18.4601 15.78 18.3901 15.93 18.4201L18.03 18.7901C18.06 18.7901 18.09 18.7601 18.08 18.7301L16.6 15.1001" stroke="black" stroke-width="0.6"/>
<path d="M10.1 17.5L8.68999 20.44C8.67999 20.46 8.63999 20.47 8.61999 20.44L7.54999 18.6C7.46999 18.46 7.31999 18.39 7.16999 18.42L5.05999 18.79C5.03999 18.79 5.00999 18.76 5.01999 18.74L6.49999 15" stroke="black" stroke-width="0.6"/>
</svg>
