<svg width="24" height="24" viewBox="0 0 24 24" fill="none" xmlns="http://www.w3.org/2000/svg">
<path fill-rule="evenodd" clip-rule="evenodd" d="M1.97 6.14C1.69 6.04 1.39 5.95 1.09 5.9C1.07 5.89 1.05 5.89 1.02 5.88C0.819995 5.85 0.819995 5.55 1.02 5.52C1.05 5.50999 1.07 5.51 1.09 5.51C1.39 5.45 1.69 5.36 1.97 5.26C2.14 5.2 2.31 5.13 2.47 5.05C3.59 4.5 4.5 3.59 5.05 2.47C5.13 2.31 5.2 2.14 5.26 1.97C5.36 1.69 5.45 1.39 5.51 1.09C5.51 1.07 5.50999 1.05 5.52 1.02C5.55 0.819995 5.85 0.819995 5.88 1.02C5.89 1.05 5.89 1.07 5.9 1.09C5.95 1.39 6.04 1.69 6.14 1.97C6.2 2.14 6.27 2.31 6.35 2.47C6.9 3.59 7.81 4.5 8.93 5.05C9.09 5.13 9.26 5.2 9.43 5.26C9.71 5.36 10.01 5.45 10.31 5.51C10.33 5.51 10.35 5.50999 10.38 5.52C10.58 5.55 10.58 5.85 10.38 5.88C10.35 5.89 10.33 5.89 10.31 5.9C10.01 5.95 9.71 6.04 9.43 6.14C9.26 6.2 9.09 6.27 8.93 6.35C7.81 6.9 6.9 7.81 6.35 8.93C6.27 9.09 6.2 9.26 6.14 9.43C6.04 9.71 5.95 10.01 5.9 10.31C5.89 10.33 5.89 10.35 5.88 10.38C5.85 10.58 5.55 10.58 5.52 10.38C5.50999 10.35 5.51 10.33 5.51 10.31C5.45 10.01 5.36 9.71 5.26 9.43C5.2 9.26 5.13 9.09 5.05 8.93C4.5 7.81 3.59 6.9 2.47 6.35C2.31 6.27 2.14 6.2 1.97 6.14ZM8.77999 13.38C8.58 13.32 8.38 13.28 8.17 13.24C8.14 13.23 8.11 13.22 8.08 13.22H8.06999L8.06 13.21C8.03 13.21 8.00999 13.21 7.97 13.2L7.95 13.19C7.62999 13.13 7.62999 12.67 7.95 12.61L7.97 12.6C8.00999 12.59 8.03 12.59 8.06 12.59L8.06999 12.58H8.08C8.11 12.58 8.14 12.57 8.17 12.56C8.38 12.52 8.58 12.48 8.77999 12.42C8.95 12.38 9.12 12.33 9.27999 12.27C11.97 11.38 14.08 9.26999 14.97 6.58C15.03 6.42 15.08 6.25 15.12 6.08C15.18 5.88 15.22 5.68 15.26 5.47C15.27 5.43999 15.28 5.41 15.28 5.38V5.37L15.29 5.35C15.29 5.33999 15.29 5.31 15.3 5.27L15.31 5.25C15.37 4.93 15.83 4.93 15.89 5.25L15.9 5.27C15.91 5.31 15.91 5.33 15.91 5.35L15.92 5.37V5.38C15.92 5.41 15.93 5.43999 15.94 5.47C15.98 5.68 16.02 5.88 16.08 6.08C16.12 6.25 16.17 6.42 16.23 6.58C17.12 9.26999 19.23 11.38 21.92 12.27C22.08 12.33 22.25 12.38 22.42 12.42C22.62 12.48 22.82 12.52 23.03 12.56C23.06 12.57 23.09 12.58 23.12 12.58H23.13L23.14 12.59C23.17 12.59 23.19 12.59 23.23 12.6L23.25 12.61C23.57 12.67 23.57 13.13 23.25 13.19L23.23 13.2L23.19 13.21H23.14L23.13 13.22H23.12C23.09 13.22 23.06 13.23 23.03 13.24C22.82 13.28 22.62 13.32 22.42 13.38C22.25 13.42 22.08 13.47 21.92 13.53C19.23 14.42 17.12 16.53 16.23 19.22C16.17 19.38 16.12 19.55 16.08 19.72C16.02 19.92 15.98 20.12 15.94 20.33C15.93 20.36 15.92 20.39 15.92 20.42V20.43L15.91 20.44V20.47L15.9 20.53L15.89 20.55C15.83 20.87 15.37 20.87 15.31 20.55L15.3 20.53C15.29 20.49 15.29 20.47 15.29 20.44L15.28 20.43V20.42C15.28 20.39 15.27 20.36 15.26 20.33C15.22 20.12 15.18 19.92 15.12 19.72C15.08 19.55 15.03 19.38 14.97 19.22C14.08 16.53 11.97 14.42 9.27999 13.53C9.12 13.47 8.95 13.42 8.77999 13.38ZM4.29 19.62C4.63 19.69 4.95 19.8 5.25 19.96C5.39 20.03 5.50999 20.11 5.64 20.19C5.98 20.43 6.27 20.72 6.51 21.06C6.59 21.19 6.66999 21.31 6.74 21.45C6.89999 21.75 7.00999 22.07 7.08 22.41C7.08 22.43 7.08 22.44 7.08 22.45C7.11 22.58 7.29 22.58 7.32 22.45C7.32 22.44 7.32 22.43 7.32 22.41C7.39 22.07 7.5 21.75 7.66 21.45C7.73 21.31 7.81 21.19 7.89 21.06C8.12999 20.72 8.42 20.43 8.76 20.19C8.89 20.11 9.00999 20.03 9.14999 19.96C9.45 19.8 9.76999 19.69 10.11 19.62C10.13 19.62 10.14 19.62 10.15 19.62C10.28 19.59 10.28 19.41 10.15 19.38C10.14 19.38 10.13 19.38 10.11 19.38C9.76999 19.31 9.45 19.2 9.14999 19.04C9.00999 18.97 8.89 18.89 8.76 18.81C8.42 18.57 8.12999 18.28 7.89 17.94C7.81 17.81 7.73 17.69 7.66 17.55C7.5 17.25 7.39 16.93 7.32 16.59C7.32 16.57 7.32 16.56 7.32 16.55C7.29 16.42 7.11 16.42 7.08 16.55C7.08 16.56 7.08 16.57 7.08 16.59C7.00999 16.93 6.89999 17.25 6.74 17.55C6.66999 17.69 6.59 17.81 6.51 17.94C6.27 18.28 5.98 18.57 5.64 18.81C5.50999 18.89 5.39 18.97 5.25 19.04C4.95 19.2 4.63 19.31 4.29 19.38C4.27 19.38 4.26 19.38 4.25 19.38C4.12 19.41 4.12 19.59 4.25 19.62C4.26 19.62 4.27 19.62 4.29 19.62Z" fill="url(#paint0_linear_143_19)"/>
<defs>
<linearGradient id="paint0_linear_143_19" x1="1.67999" y1="0.869996" x2="22.68" y2="22.55" gradientUnits="userSpaceOnUse">
<stop stop-color="#122F4F"/>
<stop offset="1" stop-color="#4A93E3"/>
</linearGradient>
</defs>
</svg>
