<svg width="24" height="24" viewBox="0 0 24 24" fill="none" xmlns="http://www.w3.org/2000/svg">
<g clip-path="url(#clip0_189_1689)">
<path d="M12.0002 10.4043C12.8725 10.4045 13.5803 11.1126 13.5803 11.9854C13.58 12.8577 12.8725 13.5652 12.0002 13.5654C11.1268 13.5654 10.4194 12.8577 10.4191 11.9854C10.4191 11.1126 11.1269 10.4043 12.0002 10.4043Z" stroke="#122F4F" stroke-width="0.7125"/>
<path d="M8.20996 8.04871C9.87593 7.3644 11.8478 7.02588 14.0342 7.53601C16.1575 8.03146 18.5139 9.33579 21.0098 11.9608C18.5124 14.6299 16.1563 15.9566 14.0332 16.4598C11.8481 16.9778 9.87738 16.6343 8.21191 15.9393C6.54257 15.2428 5.18359 14.194 4.23926 13.3143C3.7683 12.8756 3.40313 12.4809 3.15625 12.1971C3.07775 12.1069 3.01296 12.0264 2.95898 11.9608C3.01245 11.897 3.07711 11.8196 3.1543 11.7323C3.40118 11.4529 3.76614 11.0638 4.2373 10.6317C5.1814 9.76598 6.54037 8.73456 8.20996 8.04871Z" stroke="#122F4F" stroke-width="0.7125"/>
<path d="M11.9033 15.8017C12.0354 15.8017 12.166 15.7921 12.2944 15.7765C14.2597 15.6258 15.8071 13.9878 15.8071 11.9846C15.8071 9.882 14.1022 8.17719 11.9996 8.17719C9.89707 8.17719 8.19299 9.8813 8.19299 11.9846C8.19299 13.5633 9.1542 14.9178 10.5235 15.4945C10.9466 15.6911 11.4134 15.8017 11.9033 15.8017Z" fill="white"/>
<path d="M11.9995 9.89355C13.1634 9.89365 14.106 10.8359 14.106 11.9971C14.1059 13.1026 13.2507 14.0085 12.1626 14.0918H12.1548L12.147 14.0928C12.075 14.1015 12.0052 14.1064 11.937 14.1064C11.6744 14.1064 11.4236 14.0476 11.1948 13.9414L11.1821 13.9365L11.0435 13.8711C10.3599 13.5228 9.89312 12.814 9.89307 11.9971C9.89307 10.8354 10.8356 9.89355 11.9995 9.89355Z" stroke="#122F4F" stroke-width="0.7125"/>
<path fill-rule="evenodd" clip-rule="evenodd" d="M19.1303 5.13043L4.93035 19.3304L4.40002 18.8L18.6 4.6001L19.1303 5.13043Z" fill="#122F4F"/>
</g>
<defs>
<clipPath id="clip0_189_1689">
<rect width="19" height="19" fill="white" transform="translate(2.5 2.5)"/>
</clipPath>
</defs>
</svg>
