<svg width="24" height="24" viewBox="0 0 24 24" fill="none" xmlns="http://www.w3.org/2000/svg">
<path d="M17.25 13.59C17.62 13.59 17.91 13.88 17.91 14.25V15.75C17.91 16.94 16.94 17.91 15.75 17.91H8.25003C7.06003 17.91 6.09003 16.94 6.09003 15.75V14.25C6.09003 13.88 6.39003 13.59 6.75003 13.59C7.12003 13.59 7.41003 13.89 7.41003 14.25V15.75C7.41003 16.18 7.74003 16.54 8.17003 16.59H15.75C16.22 16.59 16.59 16.21 16.59 15.75V14.25C16.59 13.88 16.89 13.59 17.25 13.59ZM12 6.09003L14.7 8.39003C14.96 8.64003 14.97 9.06003 14.73 9.32003C14.48 9.58003 14.07 9.60003 13.8 9.35003L12.66 8.28003V14.25C12.66 14.61 12.37 14.91 12 14.91C11.64 14.91 11.34 14.61 11.34 14.25V8.28003L10.2 9.35003C9.94003 9.60003 9.52003 9.58003 9.27003 9.32003C9.03003 9.06003 9.04003 8.64003 9.30003 8.39003L12 6.09003Z" fill="black"/>
</svg>
