<svg width="24" height="24" viewBox="0 0 24 24" fill="none" xmlns="http://www.w3.org/2000/svg">
<path d="M20.5498 9.35409H15.548L15.9145 9.20556C16.4928 8.95243 16.92 8.44355 17.0694 7.83094C17.2777 7.10762 17.1415 6.32801 16.7003 5.71806C16.3812 5.27333 15.8697 5.00702 15.323 5H15.3028C14.7095 5.01934 14.162 5.32256 13.8315 5.81475L11.9999 8.38199L10.1682 5.81475C9.83776 5.32256 9.29022 5.01933 8.69694 5C8.145 5.00791 7.62732 5.27423 7.29949 5.71806C6.85829 6.32801 6.72206 7.10762 6.93036 7.83094C7.07977 8.44355 7.50692 8.95243 8.08524 9.20556L8.45174 9.35409H3.45C3.20126 9.35409 3 9.55536 3 9.80409V14.4913C3 14.6099 3.04746 14.7251 3.13184 14.8095C3.21621 14.8938 3.33047 14.9413 3.45001 14.9413H3.90001V19.1803C3.90001 19.2989 3.94747 19.4141 4.03184 19.4985C4.11622 19.5828 4.23048 19.6303 4.35002 19.6303H19.65C19.7695 19.6303 19.8838 19.5828 19.9682 19.4985C20.0525 19.4141 20.1 19.2989 20.1 19.1803V14.9413H20.55C20.6695 14.9413 20.7838 14.8938 20.8682 14.8095C20.9525 14.7251 21 14.6099 21 14.4913V9.80409C21 9.68456 20.9525 9.57029 20.8682 9.48592C20.7838 9.40154 20.6695 9.35408 20.55 9.35408L20.5498 9.35409ZM14.5643 6.33685C14.7304 6.08021 15.009 5.91761 15.314 5.90003C15.5777 5.90707 15.822 6.04066 15.9706 6.25774C16.243 6.64622 16.3256 7.13663 16.1956 7.5928C16.12 7.93556 15.8888 8.22297 15.5707 8.37062L13.174 9.34973H12.4164L14.5643 6.33685ZM8.4243 8.36184C8.1079 8.21595 7.87674 7.93029 7.79853 7.59016C7.66933 7.13402 7.75195 6.64447 8.02353 6.25598C8.17294 6.03802 8.41728 5.9053 8.68096 5.89828C8.98594 5.91586 9.26456 6.07758 9.42978 6.33509L11.5787 9.34806L10.8255 9.34718L8.4243 8.36184ZM9.67323 18.7118H4.79974V14.9413H9.67323V18.7118ZM9.67323 14.0228H3.89974V10.2541H9.67323V14.0228ZM13.4262 18.7303H10.5732V10.2498H13.4262V18.7303ZM19.197 18.7303H14.3262V14.9413H19.1997L19.197 18.7303ZM20.097 14.0413H14.3262V10.2541H20.0997L20.097 14.0413Z" fill="#122F4F"/>
</svg>
