<svg width="24" height="24" viewBox="0 0 24 24" fill="none" xmlns="http://www.w3.org/2000/svg">
<path fill-rule="evenodd" clip-rule="evenodd" d="M9.88871 7.77722L12.2446 6.70637C12.3435 6.66142 12.4566 6.65983 12.5567 6.70198L17.646 8.84484C17.7904 8.90562 17.8842 9.04699 17.8842 9.20361V13.65C17.8842 13.8042 17.7933 13.9438 17.6524 14.0061L12.5631 16.2561C12.4618 16.3008 12.3463 16.3004 12.2454 16.2548L7.26329 14.0048C7.12385 13.9419 7.03423 13.803 7.03423 13.65V9.31076C7.03423 9.15745 7.12421 9.01842 7.26407 8.95562L9.88816 7.77746L9.88871 7.77722ZM12.7949 11.7583V15.3023L17.1057 13.3965V9.80712L15.3427 10.6051L15.3637 12.306C15.3664 12.5209 15.1942 12.6974 14.9792 12.7C14.7643 12.7027 14.5878 12.5306 14.5852 12.3156L14.5684 10.9556L12.7949 11.7583ZM16.9596 9.21071L12.4089 7.29465L10.5668 8.13197L14.9504 10.1201L16.9596 9.21071ZM12.0164 11.761L7.8128 9.90782V13.3987L12.0164 15.2971V11.761Z" fill="#122F4F"/>
<path fill-rule="evenodd" clip-rule="evenodd" d="M14.757 3.17858C10.0911 1.92834 5.29503 4.69733 4.04479 9.36329C2.79455 14.0293 5.56354 18.8253 10.2295 20.0755C14.8955 21.3258 19.6915 18.5568 20.9417 13.8908L21.79 14.1181C20.4142 19.2525 15.1367 22.2995 10.0022 20.9238C4.86779 19.548 1.82079 14.2704 3.19655 9.13601C4.57232 4.00157 9.84988 0.954574 14.9843 2.33034C17.4255 2.98444 19.3954 4.52132 20.6416 6.50454L19.898 6.97175C18.7651 5.1687 16.9759 3.77311 14.757 3.17858Z" fill="#122F4F"/>
<path fill-rule="evenodd" clip-rule="evenodd" d="M21.9396 4.26258L20.776 7.78956L17.39 6.8681L17.6206 6.02076L20.203 6.72352L21.1057 3.98745L21.9396 4.26258Z" fill="#122F4F"/>
</svg>
