<svg width="24" height="24" viewBox="0 0 24 24" fill="none" xmlns="http://www.w3.org/2000/svg">
<g clip-path="url(#clip0_157_36)">
<path fill-rule="evenodd" clip-rule="evenodd" d="M12 23.25C18.21 23.25 23.25 18.21 23.25 12C23.25 5.805 18.21 0.75 12 0.75C5.805 0.75 0.75 5.805 0.75 12C0.75 18.21 5.805 23.25 12 23.25ZM12 21.375C6.81 21.375 2.625 17.19 2.625 12C2.625 6.81 6.81 2.625 12 2.625C17.19 2.625 21.375 6.81 21.375 12C21.375 17.19 17.19 21.375 12 21.375Z" fill="#122F4F"/>
<path d="M12 21.375C6.81 21.375 2.625 17.19 2.625 12C2.625 6.81 6.81 2.625 12 2.625C17.19 2.625 21.375 6.81 21.375 12C21.375 17.19 17.19 21.375 12 21.375Z" fill="#122F4F"/>
<path d="M11.805 17.475C11.31 17.475 10.905 17.07 10.905 16.575C10.905 16.065 11.31 15.675 11.805 15.675C12.315 15.675 12.705 16.065 12.705 16.575C12.705 17.07 12.3 17.475 11.805 17.475Z" fill="white"/>
<path d="M13.815 12.1049C13.005 12.7049 12.48 13.1099 12.48 14.5649C12.48 14.9399 12.18 15.2549 11.79 15.2549C11.415 15.2549 11.1 14.9399 11.1 14.5649C11.1 12.4199 12.105 11.6699 12.975 11.0099C13.095 10.9199 13.77 10.4999 13.77 9.5999C13.77 8.6699 13.02 7.9049 12.09 7.9049C11.385 7.9049 10.77 8.3249 10.515 8.9699C10.38 9.3149 9.97503 9.4949 9.61503 9.3599C9.27003 9.2099 9.09003 8.8049 9.24003 8.4599C9.70503 7.2899 10.815 6.5249 12.09 6.5249C13.77 6.5249 15.15 7.9049 15.15 9.5999C15.15 11.1749 13.935 11.9999 13.815 12.1049Z" fill="white"/>
</g>
<defs>
<clipPath id="clip0_157_36">
<rect width="24" height="24" fill="white"/>
</clipPath>
</defs>
</svg>
