<svg width="24" height="24" viewBox="0 0 24 24" fill="none" xmlns="http://www.w3.org/2000/svg">
<path d="M20.59 2.89004L20.49 2.79004L20.38 2.89004L12.01 11.26L3.64998 2.89004L3.53998 2.79004L3.43998 2.89004L2.89998 3.41004L2.78998 3.51004L2.88998 3.62004L11.26 11.99L2.88998 20.35L2.78998 20.46L2.88998 20.57L3.42998 21.11L3.53998 21.21L3.64998 21.11L12.01 12.74L20.38 21.11L20.49 21.21L20.59 21.1L21.11 20.56L21.21 20.46L21.11 20.35L12.74 11.99L21.11 3.62004L21.21 3.51004L21.11 3.41004L20.59 2.89004Z" fill="black" stroke="black" stroke-width="0.3"/>
</svg>
