<svg width="24" height="24" viewBox="0 0 24 24" fill="none" xmlns="http://www.w3.org/2000/svg">
<path d="M10.0598 6.25569C9.86882 6.16029 9.6617 6.09017 9.44319 6.04994C9.43421 6.04822 9.42523 6.04707 9.41625 6.04535C9.33423 6.03098 9.33423 5.91833 9.41625 5.90397C9.42523 5.90224 9.43421 5.90109 9.44319 5.89937C9.66168 5.85915 9.86882 5.78903 10.0598 5.69363C10.1442 5.6511 10.2262 5.6034 10.3041 5.5511C10.5214 5.40569 10.7099 5.22468 10.8614 5.01605C10.9159 4.94132 10.9656 4.86259 11.0099 4.78156C11.1092 4.59823 11.1823 4.39939 11.2242 4.18962C11.226 4.181 11.2272 4.17238 11.229 4.16376C11.2439 4.08502 11.3613 4.08502 11.3762 4.16376C11.378 4.17238 11.3792 4.181 11.381 4.18962C11.4229 4.39937 11.496 4.59823 11.5953 4.78156C11.6396 4.8626 11.6893 4.94134 11.7438 5.01605C11.8953 5.22466 12.0838 5.4057 12.3011 5.5511C12.379 5.6034 12.461 5.6511 12.5454 5.69363C12.7364 5.78902 12.9435 5.85914 13.162 5.89937C13.171 5.90109 13.18 5.90224 13.189 5.90397C13.271 5.91833 13.271 6.03098 13.189 6.04535C13.18 6.04707 13.171 6.04822 13.162 6.04994C12.9435 6.09016 12.7364 6.16028 12.5454 6.25569C12.461 6.29821 12.379 6.34592 12.3011 6.39821C12.0838 6.54362 11.8953 6.72464 11.7438 6.93326C11.6893 7.00799 11.6396 7.08672 11.5953 7.16775C11.496 7.35108 11.4229 7.54992 11.381 7.75969C11.3792 7.76831 11.378 7.77693 11.3762 7.78555C11.3613 7.86429 11.2439 7.86429 11.229 7.78555C11.2272 7.77694 11.226 7.76831 11.2242 7.75969C11.1823 7.54994 11.1092 7.35108 11.0099 7.16775C10.9656 7.08671 10.9159 7.00797 10.8614 6.93326C10.7099 6.72466 10.5214 6.54361 10.3041 6.39821C10.2262 6.34592 10.1442 6.29821 10.0598 6.25569Z" fill="black"/>
<path d="M4.42362 9.46888C4.12848 9.32144 3.80838 9.21309 3.47068 9.15092C3.4568 9.14825 3.44293 9.14647 3.42905 9.14381C3.3023 9.12161 3.3023 8.94752 3.42905 8.92532C3.44293 8.92265 3.4568 8.92087 3.47068 8.91822C3.80836 8.85605 4.12848 8.74769 4.42362 8.60025C4.55408 8.53452 4.68084 8.4608 4.80111 8.37998C5.13694 8.15526 5.42839 7.8755 5.66246 7.55309C5.74666 7.4376 5.82345 7.31593 5.89191 7.1907C6.04548 6.90736 6.15836 6.60006 6.22312 6.27587C6.2259 6.26255 6.22775 6.24922 6.23052 6.2359C6.25365 6.11422 6.43499 6.11422 6.45812 6.2359C6.4609 6.24922 6.46275 6.26255 6.46552 6.27587C6.53028 6.60004 6.64315 6.90736 6.79673 7.1907C6.8652 7.31593 6.94199 7.43762 7.02618 7.55309C7.26026 7.87548 7.55168 8.15526 7.88753 8.37998C8.00783 8.4608 8.13457 8.53452 8.26502 8.60025C8.56016 8.74768 8.88026 8.85604 9.21796 8.91822C9.23184 8.92087 9.24572 8.92265 9.2596 8.92532C9.38635 8.94752 9.38635 9.12161 9.2596 9.14381C9.24572 9.14647 9.23184 9.14825 9.21796 9.15092C8.88029 9.21308 8.56016 9.32144 8.26502 9.46888C8.13457 9.5346 8.00781 9.60835 7.88753 9.68918C7.5517 9.91382 7.26025 10.1937 7.02618 10.516C6.94199 10.6315 6.8652 10.7532 6.79673 10.8784C6.64316 11.1617 6.53029 11.469 6.46552 11.7932C6.46275 11.8066 6.4609 11.8199 6.45812 11.8332C6.43499 11.9549 6.25365 11.9549 6.23052 11.8332C6.22775 11.8199 6.2259 11.8066 6.22312 11.7932C6.15837 11.4691 6.04549 11.1617 5.89191 10.8784C5.82345 10.7532 5.74666 10.6315 5.66246 10.516C5.42839 10.1937 5.13697 9.91382 4.80111 9.68918C4.68082 9.60835 4.55407 9.5346 4.42362 9.46888Z" fill="black"/>
<path fill-rule="evenodd" clip-rule="evenodd" d="M15.0808 7.91834L15.0638 7.90202L16.7385 6.29438C17.0228 6.0315 17.3914 5.87985 17.7917 5.87985C18.1919 5.87985 18.5605 6.03151 18.8449 6.29438L19.9021 7.30934C20.176 7.58234 20.3339 7.93621 20.3339 8.32042C20.3339 8.70463 20.1759 9.0585 19.9021 9.3315L18.8091 10.3809L18.8254 10.3965L9.6543 19.2006C9.35941 19.4837 8.99077 19.6758 8.58003 19.7567L5.33374 20.4247L5.9219 17.2049C6.00616 16.8106 6.20627 16.4567 6.50118 16.1736L15.0808 7.91834ZM19.2326 8.70324L18.2275 9.66816L16.3878 7.90202L17.3929 6.93711C17.5114 6.82967 17.6489 6.77859 17.7917 6.77859C17.9344 6.77859 18.0719 6.82965 18.1904 6.93713L19.2326 7.93762C19.3445 8.05139 19.3977 8.18333 19.3977 8.32042C19.3977 8.45747 19.3445 8.58941 19.2326 8.70324ZM8.99232 18.5651C8.82614 18.7246 8.62238 18.8306 8.39365 18.876L8.3919 18.8763L6.50118 19.2827L6.83899 17.3855L6.83933 17.3839C6.88659 17.1642 6.99694 16.9687 7.16315 16.8091L15.6625 8.63113L17.5015 10.3965L8.99232 18.5651Z" fill="black"/>
</svg>
