<svg width="24" height="24" viewBox="0 0 24 24" fill="none" xmlns="http://www.w3.org/2000/svg">
<path d="M15.9999 10.564V8.10249C15.9999 5.84035 14.2057 4 12 4C9.79432 4 8.00006 5.84026 8.00006 8.10249V10.564C6.89794 10.564 6 11.4849 6 12.6153V17.9487C6 19.079 6.89785 20 8.00006 20H15.9999C17.1021 20 18 19.0791 18 17.9487V12.6153C18 11.4835 17.1021 10.564 15.9999 10.564ZM8.80005 8.10099C8.80005 6.29151 10.2357 4.819 12 4.819C13.7643 4.819 15.1999 6.29151 15.1999 8.10099V10.5625H8.80005V8.10099ZM17.2 17.947C17.2 18.6261 16.6622 19.1777 16 19.1777H8.00015C7.33802 19.1777 6.80017 18.6261 6.80017 17.947V12.6136C6.80017 11.9345 7.33802 11.3829 8.00015 11.3829H16C16.6622 11.3829 17.2 11.9345 17.2 12.6136V17.947Z" fill="black"/>
<path d="M15.9999 10.564V8.10249C15.9999 5.84035 14.2057 4 12 4C9.79432 4 8.00006 5.84026 8.00006 8.10249V10.564C6.89794 10.564 6 11.4849 6 12.6153V17.9487C6 19.079 6.89785 20 8.00006 20H15.9999C17.1021 20 18 19.0791 18 17.9487V12.6153C18 11.4835 17.1021 10.564 15.9999 10.564ZM8.80005 8.10099C8.80005 6.29151 10.2357 4.819 12 4.819C13.7643 4.819 15.1999 6.29151 15.1999 8.10099V10.5625H8.80005V8.10099ZM17.2 17.947C17.2 18.6261 16.6622 19.1777 16 19.1777H8.00015C7.33802 19.1777 6.80017 18.6261 6.80017 17.947V12.6136C6.80017 11.9345 7.33802 11.3829 8.00015 11.3829H16C16.6622 11.3829 17.2 11.9345 17.2 12.6136V17.947Z" fill="#1B1C1E"/>
<path d="M15.9999 10.564V8.10249C15.9999 5.84035 14.2057 4 12 4C9.79432 4 8.00006 5.84026 8.00006 8.10249V10.564C6.89794 10.564 6 11.4849 6 12.6153V17.9487C6 19.079 6.89785 20 8.00006 20H15.9999C17.1021 20 18 19.0791 18 17.9487V12.6153C18 11.4835 17.1021 10.564 15.9999 10.564ZM8.80005 8.10099C8.80005 6.29151 10.2357 4.819 12 4.819C13.7643 4.819 15.1999 6.29151 15.1999 8.10099V10.5625H8.80005V8.10099ZM17.2 17.947C17.2 18.6261 16.6622 19.1777 16 19.1777H8.00015C7.33802 19.1777 6.80017 18.6261 6.80017 17.947V12.6136C6.80017 11.9345 7.33802 11.3829 8.00015 11.3829H16C16.6622 11.3829 17.2 11.9345 17.2 12.6136V17.947Z" fill="#1F1F1F"/>
<path d="M17.2 17.947C17.2 18.6261 16.6622 19.1777 16 19.1777H8.00015C7.33802 19.1777 6.80017 18.6261 6.80017 17.947V12.6136C6.80017 11.9345 7.33802 11.3829 8.00015 11.3829H16C16.6622 11.3829 17.2 11.9345 17.2 12.6136V17.947Z" fill="black"/>
<path d="M17.2 17.947C17.2 18.6261 16.6622 19.1777 16 19.1777H8.00015C7.33802 19.1777 6.80017 18.6261 6.80017 17.947V12.6136C6.80017 11.9345 7.33802 11.3829 8.00015 11.3829H16C16.6622 11.3829 17.2 11.9345 17.2 12.6136V17.947Z" fill="#1B1C1E"/>
<path d="M17.2 17.947C17.2 18.6261 16.6622 19.1777 16 19.1777H8.00015C7.33802 19.1777 6.80017 18.6261 6.80017 17.947V12.6136C6.80017 11.9345 7.33802 11.3829 8.00015 11.3829H16C16.6622 11.3829 17.2 11.9345 17.2 12.6136V17.947Z" fill="#1F1F1F"/>
</svg>
