<svg width="24" height="24" viewBox="0 0 24 24" fill="none" xmlns="http://www.w3.org/2000/svg">
<path d="M3.52998 14C3.82998 13.38 4.37998 12.73 5.15998 12.08L5.41998 11.88C6.74998 10.87 8.50998 9.92 10.35 9.19C12.31 8.42 14.39 7.88 16.19 7.78L16.56 7.76C17.42 7.73 18.14 7.84 18.71 8.05C19.36 8.3 19.83 8.7 20.05 9.24C20.26 9.78 20.19 10.39 19.89 11.02C19.58 11.64 19.04 12.29 18.25 12.94C16.89 14.03 15 15.05 13.02 15.83C11.04 16.6 8.94998 17.14 7.21998 17.24C6.20998 17.31 5.35998 17.21 4.70998 16.97C4.04998 16.72 3.57998 16.32 3.36998 15.78C3.15998 15.24 3.21998 14.63 3.52998 14ZM6.07998 13.09C5.11998 13.86 4.75998 14.66 4.82998 15.17C4.85998 15.41 4.98998 15.61 5.23998 15.75C5.45998 15.88 5.79998 15.96 6.25998 15.95C8.24998 15.77 10.22 15.25 12.12 14.54C14.15 13.77 16.09 12.8 17.28 11.87C17.75 11.49 18.07 11.11 18.25 10.77C18.44 10.42 18.48 10.13 18.43 9.91C18.38 9.7 18.24 9.51 17.97 9.38C17.69 9.25 17.26 9.17 16.68 9.22C15.16 9.32 13.11 9.81 11.13 10.52C9.14998 11.24 7.26998 12.16 6.07998 13.09Z" stroke="black" stroke-width="0.6"/>
<path d="M11.51 6.87988L12.28 7.52988L11.24 11.4799L11.2 11.4999L7.71997 9.35988L7.81997 8.35988L11.51 6.87988Z" fill="white" stroke="black" stroke-width="0.6"/>
</svg>
