<svg width="24" height="24" viewBox="0 0 24 24" fill="none" xmlns="http://www.w3.org/2000/svg">
<path d="M5.43002 6.27994C5.13002 5.98994 5.13002 5.50994 5.43002 5.21994C5.72002 4.92994 6.19002 4.92994 6.49002 5.21994L19.08 17.8199C19.38 18.1099 19.38 18.5799 19.08 18.8799C18.79 19.1699 18.32 19.1699 18.02 18.8799L5.43002 6.27994Z" fill="black"/>
<path d="M6.28 18.8799C5.99 19.1699 5.51 19.1699 5.22 18.8799C4.93 18.5799 4.93 18.1099 5.22 17.8199L17.82 5.21994C18.11 4.92994 18.58 4.92994 18.88 5.21994C19.17 5.50994 19.17 5.98994 18.88 6.27994L6.28 18.8799Z" fill="black"/>
</svg>
